{
    "asset" : {
        "generator" : "Khronos glTF Blender I/O v1.7.33",
        "version" : "2.0"
    },
    "scene" : 0,
    "scenes" : [
        {
            "name" : "Scene",
            "nodes" : [
                0
            ]
        }
    ],
    "nodes" : [
        {
            "mesh" : 0,
            "name" : "Head.002",
            "rotation" : [
                0.7071068286895752,
                0,
                0,
                0.7071067094802856
            ],
            "scale" : [
                0.02902965620160103,
                0.02902965620160103,
                0.02902965620160103
            ],
            "translation" : [
                -3.215545177459717,
                5.384690284729004,
                5.476093292236328
            ]
        }
    ],
    "materials" : [
        {
            "doubleSided" : true,
            "name" : "Head_Mat.001",
            "pbrMetallicRoughness" : {
                "baseColorFactor" : [
                    0.5,
                    0.5,
                    0.5,
                    1
                ],
                "metallicFactor" : 0.5,
                "roughnessFactor" : 0.5527864098548889
            }
        }
    ],
    "meshes" : [
        {
            "name" : "Mesh.006",
            "primitives" : [
                {
                    "attributes" : {
                        "POSITION" : 0,
                        "NORMAL" : 1,
                        "TEXCOORD_0" : 2,
                        "TEXCOORD_1" : 3
                    },
                    "indices" : 4,
                    "material" : 0
                }
            ]
        }
    ],
    "accessors" : [
        {
            "bufferView" : 0,
            "componentType" : 5126,
            "count" : 4147,
            "max" : [
                73.83363342285156,
                12.823503494262695,
                178.7383270263672
            ],
            "min" : [
                -73.83363342285156,
                -23.03175926208496,
                -11.086276054382324
            ],
            "type" : "VEC3"
        },
        {
            "bufferView" : 1,
            "componentType" : 5126,
            "count" : 4147,
            "type" : "VEC3"
        },
        {
            "bufferView" : 2,
            "componentType" : 5126,
            "count" : 4147,
            "type" : "VEC2"
        },
        {
            "bufferView" : 3,
            "componentType" : 5126,
            "count" : 4147,
            "type" : "VEC2"
        },
        {
            "bufferView" : 4,
            "componentType" : 5123,
            "count" : 21648,
            "type" : "SCALAR"
        }
    ],
    "bufferViews" : [
        {
            "buffer" : 0,
            "byteLength" : 49764,
            "byteOffset" : 0
        },
        {
            "buffer" : 0,
            "byteLength" : 49764,
            "byteOffset" : 49764
        },
        {
            "buffer" : 0,
            "byteLength" : 33176,
            "byteOffset" : 99528
        },
        {
            "buffer" : 0,
            "byteLength" : 33176,
            "byteOffset" : 132704
        },
        {
            "buffer" : 0,
            "byteLength" : 43296,
            "byteOffset" : 165880
        }
    ],
    "buffers" : [
        {
            "byteLength" : 209176,
            "uri" : "data:application/octet-stream;base64,"
        }
    ]
}
