{
    "asset" : {
        "generator" : "Khronos glTF Blender I/O v1.7.33",
        "version" : "2.0"
    },
    "scene" : 0,
    "scenes" : [
        {
            "name" : "Scene",
            "nodes" : [
                0
            ]
        }
    ],
    "nodes" : [
        {
            "mesh" : 0,
            "name" : "coffee_maker",
            "translation" : [
                0,
                0,
                0.32890352606773376
            ]
        }
    ],
    "materials" : [
        {
            "doubleSided" : true,
            "name" : "cup",
            "pbrMetallicRoughness" : {
                "baseColorTexture" : {
                    "index" : 0
                },
                "metallicFactor" : 0,
                "roughnessFactor" : 0.5
            }
        },
        {
            "doubleSided" : true,
            "name" : "cup_handle",
            "pbrMetallicRoughness" : {
                "baseColorTexture" : {
                    "index" : 1
                },
                "metallicFactor" : 0,
                "roughnessFactor" : 0.5
            }
        },
        {
            "doubleSided" : true,
            "name" : "maker_secondary",
            "pbrMetallicRoughness" : {
                "baseColorTexture" : {
                    "index" : 2
                },
                "metallicFactor" : 0,
                "roughnessFactor" : 0.5
            }
        },
        {
            "doubleSided" : true,
            "name" : "maker_base",
            "pbrMetallicRoughness" : {
                "baseColorTexture" : {
                    "index" : 3
                },
                "metallicFactor" : 0,
                "roughnessFactor" : 0.5
            }
        },
        {
            "doubleSided" : true,
            "name" : "controls",
            "pbrMetallicRoughness" : {
                "baseColorTexture" : {
                    "index" : 4
                },
                "metallicFactor" : 0,
                "roughnessFactor" : 0.5
            }
        },
        {
            "doubleSided" : true,
            "name" : "cup_base",
            "pbrMetallicRoughness" : {
                "baseColorTexture" : {
                    "index" : 5
                },
                "metallicFactor" : 0,
                "roughnessFactor" : 0.5
            }
        },
        {
            "doubleSided" : true,
            "name" : "display",
            "pbrMetallicRoughness" : {
                "baseColorTexture" : {
                    "index" : 6
                },
                "metallicFactor" : 0,
                "roughnessFactor" : 0.5
            }
        }
    ],
    "meshes" : [
        {
            "name" : "Cube.010",
            "primitives" : [
                {
                    "attributes" : {
                        "POSITION" : 0,
                        "NORMAL" : 1,
                        "TEXCOORD_0" : 2
                    },
                    "indices" : 3,
                    "material" : 0
                },
                {
                    "attributes" : {
                        "POSITION" : 4,
                        "NORMAL" : 5,
                        "TEXCOORD_0" : 6
                    },
                    "indices" : 7,
                    "material" : 1
                },
                {
                    "attributes" : {
                        "POSITION" : 8,
                        "NORMAL" : 9,
                        "TEXCOORD_0" : 10
                    },
                    "indices" : 11,
                    "material" : 2
                },
                {
                    "attributes" : {
                        "POSITION" : 12,
                        "NORMAL" : 13,
                        "TEXCOORD_0" : 14
                    },
                    "indices" : 15,
                    "material" : 3
                },
                {
                    "attributes" : {
                        "POSITION" : 16,
                        "NORMAL" : 17,
                        "TEXCOORD_0" : 18
                    },
                    "indices" : 19,
                    "material" : 4
                },
                {
                    "attributes" : {
                        "POSITION" : 20,
                        "NORMAL" : 21,
                        "TEXCOORD_0" : 22
                    },
                    "indices" : 23,
                    "material" : 5
                },
                {
                    "attributes" : {
                        "POSITION" : 24,
                        "NORMAL" : 25,
                        "TEXCOORD_0" : 26
                    },
                    "indices" : 27,
                    "material" : 6
                }
            ]
        }
    ],
    "textures" : [
        {
            "sampler" : 0,
            "source" : 0
        },
        {
            "sampler" : 0,
            "source" : 1
        },
        {
            "sampler" : 0,
            "source" : 2
        },
        {
            "sampler" : 0,
            "source" : 3
        },
        {
            "sampler" : 0,
            "source" : 4
        },
        {
            "sampler" : 0,
            "source" : 5
        },
        {
            "sampler" : 0,
            "source" : 6
        }
    ],
    "images" : [
        {
            "bufferView" : 4,
            "mimeType" : "image/png",
            "name" : "cup_baseColor"
        },
        {
            "bufferView" : 9,
            "mimeType" : "image/png",
            "name" : "cup_handle_baseColor"
        },
        {
            "bufferView" : 14,
            "mimeType" : "image/png",
            "name" : "maker_secondary_baseColor"
        },
        {
            "bufferView" : 19,
            "mimeType" : "image/png",
            "name" : "maker_base_baseColor"
        },
        {
            "bufferView" : 24,
            "mimeType" : "image/png",
            "name" : "controls_baseColor"
        },
        {
            "bufferView" : 29,
            "mimeType" : "image/png",
            "name" : "cup_base_baseColor"
        },
        {
            "bufferView" : 34,
            "mimeType" : "image/png",
            "name" : "display_baseColor"
        }
    ],
    "accessors" : [
        {
            "bufferView" : 0,
            "componentType" : 5126,
            "count" : 327,
            "max" : [
                5.647250175476074,
                3.5549325942993164,
                6.999145984649658
            ],
            "min" : [
                5.249271392822266,
                3.1466522216796875,
                6.588992118835449
            ],
            "type" : "VEC3"
        },
        {
            "bufferView" : 1,
            "componentType" : 5126,
            "count" : 327,
            "type" : "VEC3"
        },
        {
            "bufferView" : 2,
            "componentType" : 5126,
            "count" : 327,
            "type" : "VEC2"
        },
        {
            "bufferView" : 3,
            "componentType" : 5123,
            "count" : 1056,
            "type" : "SCALAR"
        },
        {
            "bufferView" : 5,
            "componentType" : 5126,
            "count" : 106,
            "max" : [
                5.6233229637146,
                3.5318944454193115,
                7.0734992027282715
            ],
            "min" : [
                5.273198127746582,
                3.21740460395813,
                6.6080121994018555
            ],
            "type" : "VEC3"
        },
        {
            "bufferView" : 6,
            "componentType" : 5126,
            "count" : 106,
            "type" : "VEC3"
        },
        {
            "bufferView" : 7,
            "componentType" : 5126,
            "count" : 106,
            "type" : "VEC2"
        },
        {
            "bufferView" : 8,
            "componentType" : 5123,
            "count" : 252,
            "type" : "SCALAR"
        },
        {
            "bufferView" : 10,
            "componentType" : 5126,
            "count" : 110,
            "max" : [
                5.910458564758301,
                4.011907577514648,
                7.0851731300354
            ],
            "min" : [
                5.189040184020996,
                3.6494832038879395,
                6.515200138092041
            ],
            "type" : "VEC3"
        },
        {
            "bufferView" : 11,
            "componentType" : 5126,
            "count" : 110,
            "type" : "VEC3"
        },
        {
            "bufferView" : 12,
            "componentType" : 5126,
            "count" : 110,
            "type" : "VEC2"
        },
        {
            "bufferView" : 13,
            "componentType" : 5123,
            "count" : 180,
            "type" : "SCALAR"
        },
        {
            "bufferView" : 15,
            "componentType" : 5126,
            "count" : 188,
            "max" : [
                5.906208515167236,
                3.87916898727417,
                7.091907501220703
            ],
            "min" : [
                5.159511089324951,
                3.053463935852051,
                6.508465766906738
            ],
            "type" : "VEC3"
        },
        {
            "bufferView" : 16,
            "componentType" : 5126,
            "count" : 188,
            "type" : "VEC3"
        },
        {
            "bufferView" : 17,
            "componentType" : 5126,
            "count" : 188,
            "type" : "VEC2"
        },
        {
            "bufferView" : 18,
            "componentType" : 5123,
            "count" : 408,
            "type" : "SCALAR"
        },
        {
            "bufferView" : 20,
            "componentType" : 5126,
            "count" : 122,
            "max" : [
                5.235612869262695,
                3.702498435974121,
                7.0333075523376465
            ],
            "min" : [
                5.19062614440918,
                3.665231704711914,
                6.585930347442627
            ],
            "type" : "VEC3"
        },
        {
            "bufferView" : 21,
            "componentType" : 5126,
            "count" : 122,
            "type" : "VEC3"
        },
        {
            "bufferView" : 22,
            "componentType" : 5126,
            "count" : 122,
            "type" : "VEC2"
        },
        {
            "bufferView" : 23,
            "componentType" : 5123,
            "count" : 192,
            "type" : "SCALAR"
        },
        {
            "bufferView" : 25,
            "componentType" : 5126,
            "count" : 208,
            "max" : [
                5.669188499450684,
                3.7147297859191895,
                7.021115303039551
            ],
            "min" : [
                5.227331638336182,
                3.0983216762542725,
                6.579258441925049
            ],
            "type" : "VEC3"
        },
        {
            "bufferView" : 26,
            "componentType" : 5126,
            "count" : 208,
            "type" : "VEC3"
        },
        {
            "bufferView" : 27,
            "componentType" : 5126,
            "count" : 208,
            "type" : "VEC2"
        },
        {
            "bufferView" : 28,
            "componentType" : 5123,
            "count" : 552,
            "type" : "SCALAR"
        },
        {
            "bufferView" : 30,
            "componentType" : 5126,
            "count" : 24,
            "max" : [
                5.212611675262451,
                3.883882522583008,
                7.042606353759766
            ],
            "min" : [
                5.186960697174072,
                3.722827196121216,
                6.557773113250732
            ],
            "type" : "VEC3"
        },
        {
            "bufferView" : 31,
            "componentType" : 5126,
            "count" : 24,
            "type" : "VEC3"
        },
        {
            "bufferView" : 32,
            "componentType" : 5126,
            "count" : 24,
            "type" : "VEC2"
        },
        {
            "bufferView" : 33,
            "componentType" : 5123,
            "count" : 36,
            "type" : "SCALAR"
        }
    ],
    "bufferViews" : [
        {
            "buffer" : 0,
            "byteLength" : 3924,
            "byteOffset" : 0
        },
        {
            "buffer" : 0,
            "byteLength" : 3924,
            "byteOffset" : 3924
        },
        {
            "buffer" : 0,
            "byteLength" : 2616,
            "byteOffset" : 7848
        },
        {
            "buffer" : 0,
            "byteLength" : 2112,
            "byteOffset" : 10464
        },
        {
            "buffer" : 0,
            "byteLength" : 489906,
            "byteOffset" : 12576
        },
        {
            "buffer" : 0,
            "byteLength" : 1272,
            "byteOffset" : 502484
        },
        {
            "buffer" : 0,
            "byteLength" : 1272,
            "byteOffset" : 503756
        },
        {
            "buffer" : 0,
            "byteLength" : 848,
            "byteOffset" : 505028
        },
        {
            "buffer" : 0,
            "byteLength" : 504,
            "byteOffset" : 505876
        },
        {
            "buffer" : 0,
            "byteLength" : 5357,
            "byteOffset" : 506380
        },
        {
            "buffer" : 0,
            "byteLength" : 1320,
            "byteOffset" : 511740
        },
        {
            "buffer" : 0,
            "byteLength" : 1320,
            "byteOffset" : 513060
        },
        {
            "buffer" : 0,
            "byteLength" : 880,
            "byteOffset" : 514380
        },
        {
            "buffer" : 0,
            "byteLength" : 360,
            "byteOffset" : 515260
        },
        {
            "buffer" : 0,
            "byteLength" : 391193,
            "byteOffset" : 515620
        },
        {
            "buffer" : 0,
            "byteLength" : 2256,
            "byteOffset" : 906816
        },
        {
            "buffer" : 0,
            "byteLength" : 2256,
            "byteOffset" : 909072
        },
        {
            "buffer" : 0,
            "byteLength" : 1504,
            "byteOffset" : 911328
        },
        {
            "buffer" : 0,
            "byteLength" : 816,
            "byteOffset" : 912832
        },
        {
            "buffer" : 0,
            "byteLength" : 378115,
            "byteOffset" : 913648
        },
        {
            "buffer" : 0,
            "byteLength" : 1464,
            "byteOffset" : 1291764
        },
        {
            "buffer" : 0,
            "byteLength" : 1464,
            "byteOffset" : 1293228
        },
        {
            "buffer" : 0,
            "byteLength" : 976,
            "byteOffset" : 1294692
        },
        {
            "buffer" : 0,
            "byteLength" : 384,
            "byteOffset" : 1295668
        },
        {
            "buffer" : 0,
            "byteLength" : 322260,
            "byteOffset" : 1296052
        },
        {
            "buffer" : 0,
            "byteLength" : 2496,
            "byteOffset" : 1618312
        },
        {
            "buffer" : 0,
            "byteLength" : 2496,
            "byteOffset" : 1620808
        },
        {
            "buffer" : 0,
            "byteLength" : 1664,
            "byteOffset" : 1623304
        },
        {
            "buffer" : 0,
            "byteLength" : 1104,
            "byteOffset" : 1624968
        },
        {
            "buffer" : 0,
            "byteLength" : 150658,
            "byteOffset" : 1626072
        },
        {
            "buffer" : 0,
            "byteLength" : 288,
            "byteOffset" : 1776732
        },
        {
            "buffer" : 0,
            "byteLength" : 288,
            "byteOffset" : 1777020
        },
        {
            "buffer" : 0,
            "byteLength" : 192,
            "byteOffset" : 1777308
        },
        {
            "buffer" : 0,
            "byteLength" : 72,
            "byteOffset" : 1777500
        },
        {
            "buffer" : 0,
            "byteLength" : 1182840,
            "byteOffset" : 1777572
        }
    ],
    "samplers" : [
        {
            "magFilter" : 9729,
            "minFilter" : 9987
        }
    ],
    "buffers" : [
        {
            "byteLength" : 2960412,
            "uri" : "data:application/octet-stream;base64,"
        }
    ]
}
