{
    "asset" : {
        "generator" : "Khronos glTF Blender I/O v1.7.33",
        "version" : "2.0"
    },
    "scene" : 0,
    "scenes" : [
        {
            "name" : "Scene",
            "nodes" : [
                20
            ]
        }
    ],
    "nodes" : [
        {
            "mesh" : 0,
            "name" : "Mesh.013",
            "translation" : [
                0.00023984909057617188,
                0,
                -0.0004439353942871094
            ]
        },
        {
            "name" : "head",
            "rotation" : [
                -0.26153433322906494,
                -1.748393232492776e-14,
                -6.235463700932087e-08,
                0.9651942253112793
            ],
            "scale" : [
                1,
                0.9999999403953552,
                0.9999999403953552
            ],
            "translation" : [
                -6.217248937900877e-15,
                0.3464755117893219,
                -1.1175870895385742e-08
            ]
        },
        {
            "children" : [
                1
            ],
            "name" : "neck",
            "rotation" : [
                0.0920572504401207,
                7.135727420190183e-15,
                2.1948160622287105e-08,
                0.9957537651062012
            ],
            "scale" : [
                1,
                1.0000001192092896,
                1.0000001192092896
            ],
            "translation" : [
                -1.4451717004083237e-14,
                0.5511519908905029,
                -5.859440221911427e-08
            ]
        },
        {
            "children" : [
                2
            ],
            "name" : "upperspine",
            "rotation" : [
                0.11969117075204849,
                7.156877832883123e-15,
                3.3768468910011507e-08,
                0.9928112626075745
            ],
            "translation" : [
                0,
                0.9696162939071655,
                0
            ]
        },
        {
            "name" : "Bone.005",
            "rotation" : [
                -8.27968094085918e-09,
                -9.881050999638319e-08,
                0.9011072516441345,
                0.43359634280204773
            ],
            "translation" : [
                -0.2639743685722351,
                1.4430277347564697,
                -0.04468055069446564
            ]
        },
        {
            "name" : "Bone.012",
            "rotation" : [
                2.3601479881563137e-07,
                5.188929463884051e-08,
                -0.9011071920394897,
                0.43359634280204773
            ],
            "scale" : [
                0.9999999403953552,
                1,
                1
            ],
            "translation" : [
                0.2676509916782379,
                1.4632946252822876,
                -0.05175844207406044
            ]
        },
        {
            "name" : "Bone.015",
            "rotation" : [
                0.0027408997993916273,
                0.011771644465625286,
                -0.0017411408480256796,
                0.999925434589386
            ],
            "scale" : [
                0.9999997019767761,
                1.0000001192092896,
                0.9999997615814209
            ],
            "translation" : [
                -3.9155484188313494e-08,
                0.6007842421531677,
                -1.1506912755976373e-08
            ]
        },
        {
            "children" : [
                6
            ],
            "name" : "Bone.014",
            "rotation" : [
                0.06550586223602295,
                6.030014992575161e-05,
                0.0009840356651693583,
                0.9978517889976501
            ],
            "scale" : [
                0.9999999403953552,
                1.0000001192092896,
                1.0000001192092896
            ],
            "translation" : [
                2.98470865800482e-08,
                0.935879647731781,
                -1.1446310566043394e-08
            ]
        },
        {
            "children" : [
                7
            ],
            "name" : "Bone.013",
            "rotation" : [
                -2.447633562496776e-07,
                1.4265457259909908e-08,
                -0.9991899132728577,
                0.040245410054922104
            ],
            "scale" : [
                0.9999998211860657,
                1,
                1
            ],
            "translation" : [
                0.8450621962547302,
                0.9433568120002747,
                -0.09514705836772919
            ]
        },
        {
            "name" : "hand_R",
            "rotation" : [
                0.06968031823635101,
                0.008628156036138535,
                0.008112963289022446,
                0.9974991083145142
            ],
            "scale" : [
                1,
                0.9999997615814209,
                1
            ],
            "translation" : [
                1.2444316155324486e-07,
                0.5862283110618591,
                7.335516194473257e-09
            ]
        },
        {
            "children" : [
                9
            ],
            "name" : "lowerarm_R",
            "rotation" : [
                0.05719241872429848,
                0.0009780782274901867,
                0.01483030803501606,
                0.9982525706291199
            ],
            "scale" : [
                1.0000001192092896,
                1,
                1.0000001192092896
            ],
            "translation" : [
                1.0874779832192871e-07,
                0.9358797073364258,
                4.4625886319593633e-10
            ]
        },
        {
            "children" : [
                10
            ],
            "name" : "Bone.016",
            "rotation" : [
                6.771820721951372e-07,
                4.9447844929773055e-08,
                0.9998632669448853,
                0.016535919159650803
            ],
            "scale" : [
                0.9999999403953552,
                1,
                1
            ],
            "translation" : [
                -0.8638294339179993,
                0.971362829208374,
                -0.025160936638712883
            ]
        },
        {
            "children" : [
                3,
                4,
                5,
                8,
                11
            ],
            "name" : "lowerspine",
            "rotation" : [
                0,
                1.1920928955078125e-07,
                0,
                1
            ],
            "translation" : [
                0,
                0.32286351919174194,
                0
            ]
        },
        {
            "name" : "foot_R",
            "rotation" : [
                0.6526142358779907,
                0.002915982622653246,
                -0.034562185406684875,
                0.7568960785865784
            ],
            "scale" : [
                1,
                0.9999999403953552,
                1
            ],
            "translation" : [
                -9.439987280757123e-08,
                1.2376412153244019,
                -2.371114682375719e-08
            ]
        },
        {
            "children" : [
                13
            ],
            "name" : "lowerleg_R",
            "rotation" : [
                -0.0012636061292141676,
                -0.004536466673016548,
                -0.01872880943119526,
                0.9998135566711426
            ],
            "scale" : [
                1,
                1,
                1.0000001192092896
            ],
            "translation" : [
                -2.0747473072901812e-08,
                1.5593230724334717,
                2.2508272579102595e-08
            ]
        },
        {
            "children" : [
                14
            ],
            "name" : "upperleg_R",
            "rotation" : [
                0.0057061477564275265,
                -0.07098222523927689,
                0.9940513968467712,
                0.08240650594234467
            ],
            "scale" : [
                1.0000017881393433,
                1.0000001192092896,
                1.0000011920928955
            ],
            "translation" : [
                -0.21023696660995483,
                0.14813441038131714,
                -0.03270454704761505
            ]
        },
        {
            "name" : "foot_L",
            "rotation" : [
                0.6406828165054321,
                -0.1790512204170227,
                -0.12893952429294586,
                0.7354187965393066
            ],
            "translation" : [
                -2.6362141625213553e-07,
                1.2376407384872437,
                -8.445059762607343e-09
            ]
        },
        {
            "children" : [
                16
            ],
            "name" : "leglower_L",
            "rotation" : [
                -0.0011154107050970197,
                -0.00409319531172514,
                0.018738221377134323,
                0.9998154640197754
            ],
            "scale" : [
                0.9999998807907104,
                1,
                0.9999999403953552
            ],
            "translation" : [
                -4.1038998865872145e-09,
                1.5593228340148926,
                -6.9217267473220545e-09
            ]
        },
        {
            "children" : [
                17
            ],
            "name" : "upperleg_L",
            "rotation" : [
                0.006064615678042173,
                0.07101195305585861,
                -0.9940492510795593,
                0.08238091319799423
            ],
            "scale" : [
                1.0000017881393433,
                1,
                1.0000011920928955
            ],
            "translation" : [
                0.26963987946510315,
                0.14813444018363953,
                -0.03270454332232475
            ]
        },
        {
            "children" : [
                12,
                15,
                18
            ],
            "name" : "Bone",
            "translation" : [
                0,
                -0.28881555795669556,
                0
            ]
        },
        {
            "children" : [
                0,
                19
            ],
            "name" : "alan_window",
            "rotation" : [
                0,
                0.7071068286895752,
                0,
                0.7071068286895752
            ],
            "scale" : [
                0.9193516373634338,
                0.9193516373634338,
                0.9193516373634338
            ],
            "translation" : [
                3.1399335861206055,
                2.918722629547119,
                3.0604407787323
            ]
        }
    ],
    "materials" : [
        {
            "doubleSided" : true,
            "name" : "face",
            "pbrMetallicRoughness" : {
                "baseColorTexture" : {
                    "index" : 0
                },
                "metallicFactor" : 0,
                "roughnessFactor" : 0.5
            }
        },
        {
            "doubleSided" : true,
            "name" : "eyes",
            "pbrMetallicRoughness" : {
                "baseColorTexture" : {
                    "index" : 1
                },
                "metallicFactor" : 0
            }
        },
        {
            "doubleSided" : true,
            "name" : "robe",
            "pbrMetallicRoughness" : {
                "baseColorTexture" : {
                    "index" : 2
                },
                "metallicFactor" : 0,
                "roughnessFactor" : 0.8181818127632141
            }
        },
        {
            "doubleSided" : true,
            "name" : "robe2",
            "pbrMetallicRoughness" : {
                "baseColorFactor" : [
                    0.11209531128406525,
                    0.11209531128406525,
                    0.11209531128406525,
                    1
                ],
                "metallicFactor" : 0,
                "roughnessFactor" : 0.5
            }
        }
    ],
    "meshes" : [
        {
            "name" : "Mesh.019",
            "primitives" : [
                {
                    "attributes" : {
                        "POSITION" : 0,
                        "NORMAL" : 1,
                        "TEXCOORD_0" : 2,
                        "TEXCOORD_1" : 3
                    },
                    "indices" : 4,
                    "material" : 0
                },
                {
                    "attributes" : {
                        "POSITION" : 5,
                        "NORMAL" : 6,
                        "TEXCOORD_0" : 7,
                        "TEXCOORD_1" : 8
                    },
                    "indices" : 9,
                    "material" : 1
                },
                {
                    "attributes" : {
                        "POSITION" : 10,
                        "NORMAL" : 11,
                        "TEXCOORD_0" : 12,
                        "TEXCOORD_1" : 13
                    },
                    "indices" : 14,
                    "material" : 2
                },
                {
                    "attributes" : {
                        "POSITION" : 15,
                        "NORMAL" : 16,
                        "TEXCOORD_0" : 17,
                        "TEXCOORD_1" : 18
                    },
                    "indices" : 19,
                    "material" : 3
                }
            ]
        }
    ],
    "textures" : [
        {
            "sampler" : 0,
            "source" : 0
        },
        {
            "sampler" : 0,
            "source" : 1
        },
        {
            "sampler" : 0,
            "source" : 2
        }
    ],
    "images" : [
        {
            "bufferView" : 5,
            "mimeType" : "image/png",
            "name" : "alan_face"
        },
        {
            "bufferView" : 11,
            "mimeType" : "image/png",
            "name" : "alan_eyes"
        },
        {
            "bufferView" : 17,
            "mimeType" : "image/png",
            "name" : "alan_robe"
        }
    ],
    "accessors" : [
        {
            "bufferView" : 0,
            "componentType" : 5126,
            "count" : 22004,
            "max" : [
                1.0749456882476807,
                2.4176909923553467,
                0.612298309803009
            ],
            "min" : [
                -1.0883482694625854,
                -3.09216046333313,
                -0.6258764266967773
            ],
            "type" : "VEC3"
        },
        {
            "bufferView" : 1,
            "componentType" : 5126,
            "count" : 22004,
            "type" : "VEC3"
        },
        {
            "bufferView" : 2,
            "componentType" : 5126,
            "count" : 22004,
            "type" : "VEC2"
        },
        {
            "bufferView" : 3,
            "componentType" : 5126,
            "count" : 22004,
            "type" : "VEC2"
        },
        {
            "bufferView" : 4,
            "componentType" : 5123,
            "count" : 77586,
            "type" : "SCALAR"
        },
        {
            "bufferView" : 6,
            "componentType" : 5126,
            "count" : 3968,
            "max" : [
                0.1560811996459961,
                1.9619477987289429,
                0.5146779417991638
            ],
            "min" : [
                -0.12488843500614166,
                1.886559009552002,
                0.4392889738082886
            ],
            "type" : "VEC3"
        },
        {
            "bufferView" : 7,
            "componentType" : 5126,
            "count" : 3968,
            "type" : "VEC3"
        },
        {
            "bufferView" : 8,
            "componentType" : 5126,
            "count" : 3968,
            "type" : "VEC2"
        },
        {
            "bufferView" : 9,
            "componentType" : 5126,
            "count" : 3968,
            "type" : "VEC2"
        },
        {
            "bufferView" : 10,
            "componentType" : 5123,
            "count" : 5760,
            "type" : "SCALAR"
        },
        {
            "bufferView" : 12,
            "componentType" : 5126,
            "count" : 1291,
            "max" : [
                1.2442364692687988,
                1.8717602491378784,
                0.7766676545143127
            ],
            "min" : [
                -1.1578598022460938,
                -2.5542914867401123,
                -0.885482907295227
            ],
            "type" : "VEC3"
        },
        {
            "bufferView" : 13,
            "componentType" : 5126,
            "count" : 1291,
            "type" : "VEC3"
        },
        {
            "bufferView" : 14,
            "componentType" : 5126,
            "count" : 1291,
            "type" : "VEC2"
        },
        {
            "bufferView" : 15,
            "componentType" : 5126,
            "count" : 1291,
            "type" : "VEC2"
        },
        {
            "bufferView" : 16,
            "componentType" : 5123,
            "count" : 4053,
            "type" : "SCALAR"
        },
        {
            "bufferView" : 18,
            "componentType" : 5126,
            "count" : 144,
            "max" : [
                1.1572425365447998,
                0.3015342056751251,
                0.701939582824707
            ],
            "min" : [
                -1.0716077089309692,
                -1.8002026081085205,
                -0.8556318283081055
            ],
            "type" : "VEC3"
        },
        {
            "bufferView" : 19,
            "componentType" : 5126,
            "count" : 144,
            "type" : "VEC3"
        },
        {
            "bufferView" : 20,
            "componentType" : 5126,
            "count" : 144,
            "type" : "VEC2"
        },
        {
            "bufferView" : 21,
            "componentType" : 5126,
            "count" : 144,
            "type" : "VEC2"
        },
        {
            "bufferView" : 22,
            "componentType" : 5123,
            "count" : 306,
            "type" : "SCALAR"
        }
    ],
    "bufferViews" : [
        {
            "buffer" : 0,
            "byteLength" : 264048,
            "byteOffset" : 0
        },
        {
            "buffer" : 0,
            "byteLength" : 264048,
            "byteOffset" : 264048
        },
        {
            "buffer" : 0,
            "byteLength" : 176032,
            "byteOffset" : 528096
        },
        {
            "buffer" : 0,
            "byteLength" : 176032,
            "byteOffset" : 704128
        },
        {
            "buffer" : 0,
            "byteLength" : 155172,
            "byteOffset" : 880160
        },
        {
            "buffer" : 0,
            "byteLength" : 602558,
            "byteOffset" : 1035332
        },
        {
            "buffer" : 0,
            "byteLength" : 47616,
            "byteOffset" : 1637892
        },
        {
            "buffer" : 0,
            "byteLength" : 47616,
            "byteOffset" : 1685508
        },
        {
            "buffer" : 0,
            "byteLength" : 31744,
            "byteOffset" : 1733124
        },
        {
            "buffer" : 0,
            "byteLength" : 31744,
            "byteOffset" : 1764868
        },
        {
            "buffer" : 0,
            "byteLength" : 11520,
            "byteOffset" : 1796612
        },
        {
            "buffer" : 0,
            "byteLength" : 527038,
            "byteOffset" : 1808132
        },
        {
            "buffer" : 0,
            "byteLength" : 15492,
            "byteOffset" : 2335172
        },
        {
            "buffer" : 0,
            "byteLength" : 15492,
            "byteOffset" : 2350664
        },
        {
            "buffer" : 0,
            "byteLength" : 10328,
            "byteOffset" : 2366156
        },
        {
            "buffer" : 0,
            "byteLength" : 10328,
            "byteOffset" : 2376484
        },
        {
            "buffer" : 0,
            "byteLength" : 8106,
            "byteOffset" : 2386812
        },
        {
            "buffer" : 0,
            "byteLength" : 372223,
            "byteOffset" : 2394920
        },
        {
            "buffer" : 0,
            "byteLength" : 1728,
            "byteOffset" : 2767144
        },
        {
            "buffer" : 0,
            "byteLength" : 1728,
            "byteOffset" : 2768872
        },
        {
            "buffer" : 0,
            "byteLength" : 1152,
            "byteOffset" : 2770600
        },
        {
            "buffer" : 0,
            "byteLength" : 1152,
            "byteOffset" : 2771752
        },
        {
            "buffer" : 0,
            "byteLength" : 612,
            "byteOffset" : 2772904
        }
    ],
    "samplers" : [
        {
            "magFilter" : 9729,
            "minFilter" : 9987
        }
    ],
    "buffers" : [
        {
            "byteLength" : 2773516,
            "uri" : "data:application/octet-stream;base64,"
        }
    ]
}
