{
    "asset" : {
        "generator" : "Khronos glTF Blender I/O v1.7.33",
        "version" : "2.0"
    },
    "scene" : 0,
    "scenes" : [
        {
            "name" : "Scene",
            "nodes" : [
                20
            ]
        }
    ],
    "nodes" : [
        {
            "mesh" : 0,
            "name" : "Mesh.014",
            "translation" : [
                0.00024020671844482422,
                0,
                -0.0004439353942871094
            ]
        },
        {
            "name" : "head",
            "rotation" : [
                -0.26153433322906494,
                -8.948180862944355e-09,
                -7.104819133019191e-08,
                0.9651942253112793
            ],
            "scale" : [
                0.9999999403953552,
                0.9999998211860657,
                0.9999999403953552
            ],
            "translation" : [
                1.4901140765744003e-08,
                0.34647542238235474,
                4.90084630655474e-08
            ]
        },
        {
            "children" : [
                1
            ],
            "name" : "neck",
            "rotation" : [
                0.18899808824062347,
                -0.3096555173397064,
                0.08889243751764297,
                0.9276267290115356
            ],
            "scale" : [
                1,
                0.9999999403953552,
                1
            ],
            "translation" : [
                0,
                0.5511519908905029,
                0
            ]
        },
        {
            "children" : [
                2
            ],
            "name" : "upperspine",
            "rotation" : [
                -0.12065153568983078,
                -1.4315431096935914e-14,
                -6.80788261320231e-08,
                0.9926950335502625
            ],
            "scale" : [
                1,
                0.9999999403953552,
                0.9999999403953552
            ],
            "translation" : [
                0,
                0.9696162939071655,
                0
            ]
        },
        {
            "name" : "Bone.005",
            "rotation" : [
                -8.27968094085918e-09,
                -9.881050999638319e-08,
                0.9011072516441345,
                0.43359634280204773
            ],
            "translation" : [
                -0.2639743685722351,
                1.4430277347564697,
                -0.04468055069446564
            ]
        },
        {
            "name" : "Bone.012",
            "rotation" : [
                2.3601479881563137e-07,
                5.188929463884051e-08,
                -0.9011071920394897,
                0.43359634280204773
            ],
            "scale" : [
                0.9999999403953552,
                1,
                1
            ],
            "translation" : [
                0.2676509916782379,
                1.4632946252822876,
                -0.05175844207406044
            ]
        },
        {
            "name" : "Bone.015",
            "rotation" : [
                0.06858748197555542,
                0.008146507665514946,
                -0.002182255731895566,
                0.9976094961166382
            ],
            "scale" : [
                0.9999999403953552,
                1.0000001192092896,
                0.9999998807907104
            ],
            "translation" : [
                -1.5801390418346273e-07,
                0.6007843613624573,
                -8.212998281464934e-09
            ]
        },
        {
            "children" : [
                6
            ],
            "name" : "Bone.014",
            "rotation" : [
                0.05341824144124985,
                0.006981768645346165,
                -0.007260123733431101,
                0.9985214471817017
            ],
            "scale" : [
                1,
                1.0000001192092896,
                1.0000001192092896
            ],
            "translation" : [
                -2.973186497001734e-08,
                0.935879647731781,
                1.8654309208443465e-09
            ]
        },
        {
            "children" : [
                7
            ],
            "name" : "Bone.013",
            "rotation" : [
                -0.00020356065942905843,
                -0.0447511188685894,
                -0.9989879131317139,
                0.004539303481578827
            ],
            "scale" : [
                0.9999998807907104,
                1,
                0.9999999403953552
            ],
            "translation" : [
                0.9371600151062012,
                1.097846269607544,
                -0.22846506536006927
            ]
        },
        {
            "name" : "hand_R",
            "rotation" : [
                0.06968030333518982,
                0.008628158830106258,
                0.008112970739603043,
                0.9974991083145142
            ],
            "scale" : [
                1,
                0.9999998807907104,
                1
            ],
            "translation" : [
                6.160352228334887e-09,
                0.5862282514572144,
                9.585933158362536e-10
            ]
        },
        {
            "children" : [
                9
            ],
            "name" : "lowerarm_R",
            "rotation" : [
                0.13543452322483063,
                -0.6204227805137634,
                -0.08428935706615448,
                0.7678726315498352
            ],
            "translation" : [
                -1.0628594893091758e-08,
                0.9358797073364258,
                1.3277816623968874e-09
            ]
        },
        {
            "children" : [
                10
            ],
            "name" : "Bone.016",
            "rotation" : [
                -0.004079523030668497,
                0.17026454210281372,
                0.9851071238517761,
                0.02360701374709606
            ],
            "scale" : [
                0.9999998807907104,
                1,
                0.9999999403953552
            ],
            "translation" : [
                -0.8737233281135559,
                1.0968128442764282,
                -0.08669094741344452
            ]
        },
        {
            "children" : [
                3,
                4,
                5,
                8,
                11
            ],
            "name" : "lowerspine",
            "rotation" : [
                0,
                1.1920928955078125e-07,
                0,
                1
            ],
            "translation" : [
                0,
                0.32286351919174194,
                0
            ]
        },
        {
            "name" : "foot_R",
            "rotation" : [
                0.6722747683525085,
                0.007821126841008663,
                -0.03820114955306053,
                0.7392740845680237
            ],
            "scale" : [
                1.0000001192092896,
                1,
                1
            ],
            "translation" : [
                -7.102688925897382e-08,
                1.2376409769058228,
                6.901264981706845e-08
            ]
        },
        {
            "children" : [
                13
            ],
            "name" : "lowerleg_R",
            "rotation" : [
                -0.3797040283679962,
                -0.07468356192111969,
                -0.015778571367263794,
                0.9219536185264587
            ],
            "scale" : [
                0.9999998807907104,
                1,
                1
            ],
            "translation" : [
                -7.058248652214161e-09,
                1.5593228340148926,
                -8.3895628222308e-09
            ]
        },
        {
            "children" : [
                14
            ],
            "name" : "upperleg_R",
            "rotation" : [
                -0.037042103707790375,
                0.4449785351753235,
                0.8917233943939209,
                0.07383333891630173
            ],
            "scale" : [
                1.0000014305114746,
                1.0000014305114746,
                1.0000003576278687
            ],
            "translation" : [
                -0.21023699641227722,
                0.14813417196273804,
                -0.03270432725548744
            ]
        },
        {
            "name" : "foot_L",
            "rotation" : [
                0.6406827569007874,
                -0.1790512055158615,
                -0.12893952429294586,
                0.7354188561439514
            ],
            "scale" : [
                0.9999999403953552,
                1.0000001192092896,
                1
            ],
            "translation" : [
                2.654096533660777e-07,
                1.2376407384872437,
                9.932813327395706e-08
            ]
        },
        {
            "children" : [
                16
            ],
            "name" : "leglower_L",
            "rotation" : [
                -0.37956732511520386,
                0.06672324240207672,
                0.018781738355755806,
                0.9225637912750244
            ],
            "scale" : [
                0.9999998807907104,
                1,
                1.0000001192092896
            ],
            "translation" : [
                -4.53678561385118e-09,
                1.5593228340148926,
                4.569610112525879e-08
            ]
        },
        {
            "children" : [
                17
            ],
            "name" : "upperleg_L",
            "rotation" : [
                -0.036720503121614456,
                -0.4449518024921417,
                -0.8917367458343506,
                0.0739934891462326
            ],
            "scale" : [
                1.0000014305114746,
                1.0000014305114746,
                1.000000238418579
            ],
            "translation" : [
                0.26963987946510315,
                0.1481340378522873,
                -0.032704245299100876
            ]
        },
        {
            "children" : [
                12,
                15,
                18
            ],
            "name" : "Bone",
            "translation" : [
                0,
                -0.28881555795669556,
                0
            ]
        },
        {
            "children" : [
                0,
                19
            ],
            "name" : "alan_chair",
            "rotation" : [
                0,
                1,
                0,
                -1.6292068494294654e-07
            ],
            "scale" : [
                0.9193516373634338,
                0.9193516373634338,
                0.9193516373634338
            ],
            "translation" : [
                0.8640943765640259,
                2.3352041244506836,
                -2.860788345336914
            ]
        }
    ],
    "materials" : [
        {
            "doubleSided" : true,
            "name" : "face",
            "pbrMetallicRoughness" : {
                "baseColorTexture" : {
                    "index" : 0
                },
                "metallicFactor" : 0,
                "roughnessFactor" : 0.5
            }
        },
        {
            "doubleSided" : true,
            "name" : "eyes",
            "pbrMetallicRoughness" : {
                "baseColorTexture" : {
                    "index" : 1
                },
                "metallicFactor" : 0
            }
        },
        {
            "doubleSided" : true,
            "name" : "robe",
            "pbrMetallicRoughness" : {
                "baseColorTexture" : {
                    "index" : 2
                },
                "metallicFactor" : 0,
                "roughnessFactor" : 0.8181818127632141
            }
        },
        {
            "doubleSided" : true,
            "name" : "robe2",
            "pbrMetallicRoughness" : {
                "baseColorFactor" : [
                    0.11209531128406525,
                    0.11209531128406525,
                    0.11209531128406525,
                    1
                ],
                "metallicFactor" : 0,
                "roughnessFactor" : 0.5
            }
        }
    ],
    "meshes" : [
        {
            "name" : "Mesh.020",
            "primitives" : [
                {
                    "attributes" : {
                        "POSITION" : 0,
                        "NORMAL" : 1,
                        "TEXCOORD_0" : 2,
                        "TEXCOORD_1" : 3
                    },
                    "indices" : 4,
                    "material" : 0
                },
                {
                    "attributes" : {
                        "POSITION" : 5,
                        "NORMAL" : 6,
                        "TEXCOORD_0" : 7,
                        "TEXCOORD_1" : 8
                    },
                    "indices" : 9,
                    "material" : 1
                },
                {
                    "attributes" : {
                        "POSITION" : 10,
                        "NORMAL" : 11,
                        "TEXCOORD_0" : 12,
                        "TEXCOORD_1" : 13
                    },
                    "indices" : 14,
                    "material" : 2
                },
                {
                    "attributes" : {
                        "POSITION" : 15,
                        "NORMAL" : 16,
                        "TEXCOORD_0" : 17,
                        "TEXCOORD_1" : 18
                    },
                    "indices" : 19,
                    "material" : 3
                }
            ]
        }
    ],
    "textures" : [
        {
            "sampler" : 0,
            "source" : 0
        },
        {
            "sampler" : 0,
            "source" : 1
        },
        {
            "sampler" : 0,
            "source" : 2
        }
    ],
    "images" : [
        {
            "bufferView" : 5,
            "mimeType" : "image/png",
            "name" : "alan_face"
        },
        {
            "bufferView" : 11,
            "mimeType" : "image/png",
            "name" : "alan_eyes"
        },
        {
            "bufferView" : 17,
            "mimeType" : "image/png",
            "name" : "alan_robe"
        }
    ],
    "accessors" : [
        {
            "bufferView" : 0,
            "componentType" : 5126,
            "count" : 22004,
            "max" : [
                1.0258270502090454,
                2.4266204833984375,
                1.9807528257369995
            ],
            "min" : [
                -1.065549612045288,
                -2.480738401412964,
                -0.5268518328666687
            ],
            "type" : "VEC3"
        },
        {
            "bufferView" : 1,
            "componentType" : 5126,
            "count" : 22004,
            "type" : "VEC3"
        },
        {
            "bufferView" : 2,
            "componentType" : 5126,
            "count" : 22004,
            "type" : "VEC2"
        },
        {
            "bufferView" : 3,
            "componentType" : 5126,
            "count" : 22004,
            "type" : "VEC2"
        },
        {
            "bufferView" : 4,
            "componentType" : 5123,
            "count" : 77586,
            "type" : "SCALAR"
        },
        {
            "bufferView" : 6,
            "componentType" : 5126,
            "count" : 3968,
            "max" : [
                -0.09222358465194702,
                2.0374207496643066,
                0.13537397980690002
            ],
            "min" : [
                -0.330447793006897,
                1.9224737882614136,
                -0.05877164006233215
            ],
            "type" : "VEC3"
        },
        {
            "bufferView" : 7,
            "componentType" : 5126,
            "count" : 3968,
            "type" : "VEC3"
        },
        {
            "bufferView" : 8,
            "componentType" : 5126,
            "count" : 3968,
            "type" : "VEC2"
        },
        {
            "bufferView" : 9,
            "componentType" : 5126,
            "count" : 3968,
            "type" : "VEC2"
        },
        {
            "bufferView" : 10,
            "componentType" : 5123,
            "count" : 5760,
            "type" : "SCALAR"
        },
        {
            "bufferView" : 12,
            "componentType" : 5126,
            "count" : 1291,
            "max" : [
                1.2036023139953613,
                1.8423315286636353,
                2.413780450820923
            ],
            "min" : [
                -1.0672602653503418,
                -2.0513179302215576,
                -0.6027989387512207
            ],
            "type" : "VEC3"
        },
        {
            "bufferView" : 13,
            "componentType" : 5126,
            "count" : 1291,
            "type" : "VEC3"
        },
        {
            "bufferView" : 14,
            "componentType" : 5126,
            "count" : 1291,
            "type" : "VEC2"
        },
        {
            "bufferView" : 15,
            "componentType" : 5126,
            "count" : 1291,
            "type" : "VEC2"
        },
        {
            "bufferView" : 16,
            "componentType" : 5123,
            "count" : 4053,
            "type" : "SCALAR"
        },
        {
            "bufferView" : 18,
            "componentType" : 5126,
            "count" : 144,
            "max" : [
                1.1974766254425049,
                0.4911555349826813,
                2.1501967906951904
            ],
            "min" : [
                -1.0286000967025757,
                -1.6105999946594238,
                -0.3620035648345947
            ],
            "type" : "VEC3"
        },
        {
            "bufferView" : 19,
            "componentType" : 5126,
            "count" : 144,
            "type" : "VEC3"
        },
        {
            "bufferView" : 20,
            "componentType" : 5126,
            "count" : 144,
            "type" : "VEC2"
        },
        {
            "bufferView" : 21,
            "componentType" : 5126,
            "count" : 144,
            "type" : "VEC2"
        },
        {
            "bufferView" : 22,
            "componentType" : 5123,
            "count" : 306,
            "type" : "SCALAR"
        }
    ],
    "bufferViews" : [
        {
            "buffer" : 0,
            "byteLength" : 264048,
            "byteOffset" : 0
        },
        {
            "buffer" : 0,
            "byteLength" : 264048,
            "byteOffset" : 264048
        },
        {
            "buffer" : 0,
            "byteLength" : 176032,
            "byteOffset" : 528096
        },
        {
            "buffer" : 0,
            "byteLength" : 176032,
            "byteOffset" : 704128
        },
        {
            "buffer" : 0,
            "byteLength" : 155172,
            "byteOffset" : 880160
        },
        {
            "buffer" : 0,
            "byteLength" : 602558,
            "byteOffset" : 1035332
        },
        {
            "buffer" : 0,
            "byteLength" : 47616,
            "byteOffset" : 1637892
        },
        {
            "buffer" : 0,
            "byteLength" : 47616,
            "byteOffset" : 1685508
        },
        {
            "buffer" : 0,
            "byteLength" : 31744,
            "byteOffset" : 1733124
        },
        {
            "buffer" : 0,
            "byteLength" : 31744,
            "byteOffset" : 1764868
        },
        {
            "buffer" : 0,
            "byteLength" : 11520,
            "byteOffset" : 1796612
        },
        {
            "buffer" : 0,
            "byteLength" : 527038,
            "byteOffset" : 1808132
        },
        {
            "buffer" : 0,
            "byteLength" : 15492,
            "byteOffset" : 2335172
        },
        {
            "buffer" : 0,
            "byteLength" : 15492,
            "byteOffset" : 2350664
        },
        {
            "buffer" : 0,
            "byteLength" : 10328,
            "byteOffset" : 2366156
        },
        {
            "buffer" : 0,
            "byteLength" : 10328,
            "byteOffset" : 2376484
        },
        {
            "buffer" : 0,
            "byteLength" : 8106,
            "byteOffset" : 2386812
        },
        {
            "buffer" : 0,
            "byteLength" : 372223,
            "byteOffset" : 2394920
        },
        {
            "buffer" : 0,
            "byteLength" : 1728,
            "byteOffset" : 2767144
        },
        {
            "buffer" : 0,
            "byteLength" : 1728,
            "byteOffset" : 2768872
        },
        {
            "buffer" : 0,
            "byteLength" : 1152,
            "byteOffset" : 2770600
        },
        {
            "buffer" : 0,
            "byteLength" : 1152,
            "byteOffset" : 2771752
        },
        {
            "buffer" : 0,
            "byteLength" : 612,
            "byteOffset" : 2772904
        }
    ],
    "samplers" : [
        {
            "magFilter" : 9729,
            "minFilter" : 9987
        }
    ],
    "buffers" : [
        {
            "byteLength" : 2773516,
            "uri" : "data:application/octet-stream;base64,"
        }
    ]
}
