{
    "asset" : {
        "generator" : "Khronos glTF Blender I/O v1.7.33",
        "version" : "2.0"
    },
    "scene" : 0,
    "scenes" : [
        {
            "name" : "Scene",
            "nodes" : [
                0
            ]
        }
    ],
    "nodes" : [
        {
            "mesh" : 0,
            "name" : "beer.001"
        }
    ],
    "materials" : [
        {
            "doubleSided" : true,
            "name" : "bottlecap",
            "pbrMetallicRoughness" : {
                "baseColorTexture" : {
                    "index" : 0
                },
                "metallicFactor" : 0,
                "roughnessFactor" : 0.5
            }
        },
        {
            "doubleSided" : true,
            "name" : "label",
            "pbrMetallicRoughness" : {
                "baseColorTexture" : {
                    "index" : 1
                },
                "metallicFactor" : 0,
                "roughnessFactor" : 0.5
            }
        }
    ],
    "meshes" : [
        {
            "name" : "Circle.007",
            "primitives" : [
                {
                    "attributes" : {
                        "POSITION" : 0,
                        "NORMAL" : 1,
                        "TEXCOORD_0" : 2
                    },
                    "indices" : 3,
                    "material" : 0
                },
                {
                    "attributes" : {
                        "POSITION" : 4,
                        "NORMAL" : 5,
                        "TEXCOORD_0" : 6
                    },
                    "indices" : 7,
                    "material" : 1
                }
            ]
        }
    ],
    "textures" : [
        {
            "sampler" : 0,
            "source" : 0
        },
        {
            "sampler" : 0,
            "source" : 1
        }
    ],
    "images" : [
        {
            "bufferView" : 4,
            "mimeType" : "image/png",
            "name" : "bottlecap_baseColor"
        },
        {
            "bufferView" : 9,
            "mimeType" : "image/png",
            "name" : "label_baseColor"
        }
    ],
    "accessors" : [
        {
            "bufferView" : 0,
            "componentType" : 5126,
            "count" : 109,
            "max" : [
                0.12651124596595764,
                1.6450309753417969,
                0.12651783227920532
            ],
            "min" : [
                -0.12651512026786804,
                1.5758025646209717,
                -0.12650853395462036
            ],
            "type" : "VEC3"
        },
        {
            "bufferView" : 1,
            "componentType" : 5126,
            "count" : 109,
            "type" : "VEC3"
        },
        {
            "bufferView" : 2,
            "componentType" : 5126,
            "count" : 109,
            "type" : "VEC2"
        },
        {
            "bufferView" : 3,
            "componentType" : 5123,
            "count" : 336,
            "type" : "SCALAR"
        },
        {
            "bufferView" : 5,
            "componentType" : 5126,
            "count" : 372,
            "max" : [
                0.30948299169540405,
                1.6085883378982544,
                0.3094899654388428
            ],
            "min" : [
                -0.30948686599731445,
                -0.654882550239563,
                -0.3094806671142578
            ],
            "type" : "VEC3"
        },
        {
            "bufferView" : 6,
            "componentType" : 5126,
            "count" : 372,
            "type" : "VEC3"
        },
        {
            "bufferView" : 7,
            "componentType" : 5126,
            "count" : 372,
            "type" : "VEC2"
        },
        {
            "bufferView" : 8,
            "componentType" : 5123,
            "count" : 1344,
            "type" : "SCALAR"
        }
    ],
    "bufferViews" : [
        {
            "buffer" : 0,
            "byteLength" : 1308,
            "byteOffset" : 0
        },
        {
            "buffer" : 0,
            "byteLength" : 1308,
            "byteOffset" : 1308
        },
        {
            "buffer" : 0,
            "byteLength" : 872,
            "byteOffset" : 2616
        },
        {
            "buffer" : 0,
            "byteLength" : 672,
            "byteOffset" : 3488
        },
        {
            "buffer" : 0,
            "byteLength" : 335485,
            "byteOffset" : 4160
        },
        {
            "buffer" : 0,
            "byteLength" : 4464,
            "byteOffset" : 339648
        },
        {
            "buffer" : 0,
            "byteLength" : 4464,
            "byteOffset" : 344112
        },
        {
            "buffer" : 0,
            "byteLength" : 2976,
            "byteOffset" : 348576
        },
        {
            "buffer" : 0,
            "byteLength" : 2688,
            "byteOffset" : 351552
        },
        {
            "buffer" : 0,
            "byteLength" : 538820,
            "byteOffset" : 354240
        }
    ],
    "samplers" : [
        {
            "magFilter" : 9729,
            "minFilter" : 9987
        }
    ],
    "buffers" : [
        {
            "byteLength" : 893060,
            "uri" : "data:application/octet-stream;base64,"
        }
    ]
}
