{
    "asset" : {
        "generator" : "Khronos glTF Blender I/O v1.7.33",
        "version" : "2.0"
    },
    "scene" : 0,
    "scenes" : [
        {
            "name" : "Scene",
            "nodes" : [
                0
            ]
        }
    ],
    "nodes" : [
        {
            "mesh" : 0,
            "name" : "coffee_maker",
            "scale" : [
                2.9864132404327393,
                2.9864132404327393,
                2.9864132404327393
            ]
        }
    ],
    "materials" : [
        {
            "doubleSided" : true,
            "name" : "cup",
            "pbrMetallicRoughness" : {
                "baseColorTexture" : {
                    "index" : 0
                },
                "metallicFactor" : 0,
                "roughnessFactor" : 0.5
            }
        },
        {
            "doubleSided" : true,
            "name" : "cup_handle",
            "pbrMetallicRoughness" : {
                "baseColorTexture" : {
                    "index" : 1
                },
                "metallicFactor" : 0,
                "roughnessFactor" : 0.5
            }
        },
        {
            "doubleSided" : true,
            "name" : "maker_secondary",
            "pbrMetallicRoughness" : {
                "baseColorTexture" : {
                    "index" : 2
                },
                "metallicFactor" : 0,
                "roughnessFactor" : 0.5
            }
        },
        {
            "doubleSided" : true,
            "name" : "maker_base",
            "pbrMetallicRoughness" : {
                "baseColorTexture" : {
                    "index" : 3
                },
                "metallicFactor" : 0,
                "roughnessFactor" : 0.5
            }
        },
        {
            "doubleSided" : true,
            "name" : "controls",
            "pbrMetallicRoughness" : {
                "baseColorTexture" : {
                    "index" : 4
                },
                "metallicFactor" : 0,
                "roughnessFactor" : 0.5
            }
        },
        {
            "doubleSided" : true,
            "name" : "cup_base",
            "pbrMetallicRoughness" : {
                "baseColorTexture" : {
                    "index" : 5
                },
                "metallicFactor" : 0,
                "roughnessFactor" : 0.5
            }
        },
        {
            "doubleSided" : true,
            "name" : "display",
            "pbrMetallicRoughness" : {
                "baseColorTexture" : {
                    "index" : 6
                },
                "metallicFactor" : 0,
                "roughnessFactor" : 0.5
            }
        }
    ],
    "meshes" : [
        {
            "name" : "Cube.010",
            "primitives" : [
                {
                    "attributes" : {
                        "POSITION" : 0,
                        "NORMAL" : 1,
                        "TEXCOORD_0" : 2
                    },
                    "indices" : 3,
                    "material" : 0
                },
                {
                    "attributes" : {
                        "POSITION" : 4,
                        "NORMAL" : 5,
                        "TEXCOORD_0" : 6
                    },
                    "indices" : 7,
                    "material" : 1
                },
                {
                    "attributes" : {
                        "POSITION" : 8,
                        "NORMAL" : 9,
                        "TEXCOORD_0" : 10
                    },
                    "indices" : 11,
                    "material" : 2
                },
                {
                    "attributes" : {
                        "POSITION" : 12,
                        "NORMAL" : 13,
                        "TEXCOORD_0" : 14
                    },
                    "indices" : 15,
                    "material" : 3
                },
                {
                    "attributes" : {
                        "POSITION" : 16,
                        "NORMAL" : 17,
                        "TEXCOORD_0" : 18
                    },
                    "indices" : 19,
                    "material" : 4
                },
                {
                    "attributes" : {
                        "POSITION" : 20,
                        "NORMAL" : 21,
                        "TEXCOORD_0" : 22
                    },
                    "indices" : 23,
                    "material" : 5
                },
                {
                    "attributes" : {
                        "POSITION" : 24,
                        "NORMAL" : 25,
                        "TEXCOORD_0" : 26
                    },
                    "indices" : 27,
                    "material" : 6
                }
            ]
        }
    ],
    "textures" : [
        {
            "sampler" : 0,
            "source" : 0
        },
        {
            "sampler" : 0,
            "source" : 1
        },
        {
            "sampler" : 0,
            "source" : 2
        },
        {
            "sampler" : 0,
            "source" : 3
        },
        {
            "sampler" : 0,
            "source" : 4
        },
        {
            "sampler" : 0,
            "source" : 5
        },
        {
            "sampler" : 0,
            "source" : 6
        }
    ],
    "images" : [
        {
            "bufferView" : 4,
            "mimeType" : "image/png",
            "name" : "cup_baseColor"
        },
        {
            "bufferView" : 9,
            "mimeType" : "image/png",
            "name" : "cup_handle_baseColor"
        },
        {
            "bufferView" : 14,
            "mimeType" : "image/png",
            "name" : "maker_secondary_baseColor"
        },
        {
            "bufferView" : 19,
            "mimeType" : "image/png",
            "name" : "maker_base_baseColor"
        },
        {
            "bufferView" : 24,
            "mimeType" : "image/png",
            "name" : "controls_baseColor"
        },
        {
            "bufferView" : 29,
            "mimeType" : "image/png",
            "name" : "cup_base_baseColor"
        },
        {
            "bufferView" : 34,
            "mimeType" : "image/png",
            "name" : "display_baseColor"
        }
    ],
    "accessors" : [
        {
            "bufferView" : 0,
            "componentType" : 5126,
            "count" : 327,
            "max" : [
                0.1890087127685547,
                0.11410045623779297,
                0.1892085075378418
            ],
            "min" : [
                -0.2089700698852539,
                -0.29417991638183594,
                -0.2209453582763672
            ],
            "type" : "VEC3"
        },
        {
            "bufferView" : 1,
            "componentType" : 5126,
            "count" : 327,
            "type" : "VEC3"
        },
        {
            "bufferView" : 2,
            "componentType" : 5126,
            "count" : 327,
            "type" : "VEC2"
        },
        {
            "bufferView" : 3,
            "componentType" : 5123,
            "count" : 1056,
            "type" : "SCALAR"
        },
        {
            "bufferView" : 5,
            "componentType" : 5126,
            "count" : 106,
            "max" : [
                0.16508150100708008,
                0.09106230735778809,
                0.2635617256164551
            ],
            "min" : [
                -0.1850433349609375,
                -0.22342753410339355,
                -0.20192527770996094
            ],
            "type" : "VEC3"
        },
        {
            "bufferView" : 6,
            "componentType" : 5126,
            "count" : 106,
            "type" : "VEC3"
        },
        {
            "bufferView" : 7,
            "componentType" : 5126,
            "count" : 106,
            "type" : "VEC2"
        },
        {
            "bufferView" : 8,
            "componentType" : 5123,
            "count" : 252,
            "type" : "SCALAR"
        },
        {
            "bufferView" : 10,
            "componentType" : 5126,
            "count" : 112,
            "max" : [
                0.45221710205078125,
                0.571075439453125,
                0.275235652923584
            ],
            "min" : [
                -0.26920127868652344,
                0.20865106582641602,
                -0.2947373390197754
            ],
            "type" : "VEC3"
        },
        {
            "bufferView" : 11,
            "componentType" : 5126,
            "count" : 112,
            "type" : "VEC3"
        },
        {
            "bufferView" : 12,
            "componentType" : 5126,
            "count" : 112,
            "type" : "VEC2"
        },
        {
            "bufferView" : 13,
            "componentType" : 5123,
            "count" : 180,
            "type" : "SCALAR"
        },
        {
            "bufferView" : 15,
            "componentType" : 5126,
            "count" : 193,
            "max" : [
                0.4479670524597168,
                0.4383368492126465,
                0.2819700241088867
            ],
            "min" : [
                -0.29873037338256836,
                -0.38736820220947266,
                -0.3014717102050781
            ],
            "type" : "VEC3"
        },
        {
            "bufferView" : 16,
            "componentType" : 5126,
            "count" : 193,
            "type" : "VEC3"
        },
        {
            "bufferView" : 17,
            "componentType" : 5126,
            "count" : 193,
            "type" : "VEC2"
        },
        {
            "bufferView" : 18,
            "componentType" : 5123,
            "count" : 408,
            "type" : "SCALAR"
        },
        {
            "bufferView" : 20,
            "componentType" : 5126,
            "count" : 124,
            "max" : [
                -0.22262859344482422,
                0.26166629791259766,
                0.22337007522583008
            ],
            "min" : [
                -0.26761531829833984,
                0.22439956665039062,
                -0.22400712966918945
            ],
            "type" : "VEC3"
        },
        {
            "bufferView" : 21,
            "componentType" : 5126,
            "count" : 124,
            "type" : "VEC3"
        },
        {
            "bufferView" : 22,
            "componentType" : 5126,
            "count" : 124,
            "type" : "VEC2"
        },
        {
            "bufferView" : 23,
            "componentType" : 5123,
            "count" : 192,
            "type" : "SCALAR"
        },
        {
            "bufferView" : 25,
            "componentType" : 5126,
            "count" : 208,
            "max" : [
                0.21094703674316406,
                0.273897647857666,
                0.21117782592773438
            ],
            "min" : [
                -0.2309098243713379,
                -0.342510461807251,
                -0.23067903518676758
            ],
            "type" : "VEC3"
        },
        {
            "bufferView" : 26,
            "componentType" : 5126,
            "count" : 208,
            "type" : "VEC3"
        },
        {
            "bufferView" : 27,
            "componentType" : 5126,
            "count" : 208,
            "type" : "VEC2"
        },
        {
            "bufferView" : 28,
            "componentType" : 5123,
            "count" : 552,
            "type" : "SCALAR"
        },
        {
            "bufferView" : 30,
            "componentType" : 5126,
            "count" : 24,
            "max" : [
                -0.24562978744506836,
                0.4430503845214844,
                0.23266887664794922
            ],
            "min" : [
                -0.27128076553344727,
                0.2819950580596924,
                -0.252164363861084
            ],
            "type" : "VEC3"
        },
        {
            "bufferView" : 31,
            "componentType" : 5126,
            "count" : 24,
            "type" : "VEC3"
        },
        {
            "bufferView" : 32,
            "componentType" : 5126,
            "count" : 24,
            "type" : "VEC2"
        },
        {
            "bufferView" : 33,
            "componentType" : 5123,
            "count" : 36,
            "type" : "SCALAR"
        }
    ],
    "bufferViews" : [
        {
            "buffer" : 0,
            "byteLength" : 3924,
            "byteOffset" : 0
        },
        {
            "buffer" : 0,
            "byteLength" : 3924,
            "byteOffset" : 3924
        },
        {
            "buffer" : 0,
            "byteLength" : 2616,
            "byteOffset" : 7848
        },
        {
            "buffer" : 0,
            "byteLength" : 2112,
            "byteOffset" : 10464
        },
        {
            "buffer" : 0,
            "byteLength" : 489906,
            "byteOffset" : 12576
        },
        {
            "buffer" : 0,
            "byteLength" : 1272,
            "byteOffset" : 502484
        },
        {
            "buffer" : 0,
            "byteLength" : 1272,
            "byteOffset" : 503756
        },
        {
            "buffer" : 0,
            "byteLength" : 848,
            "byteOffset" : 505028
        },
        {
            "buffer" : 0,
            "byteLength" : 504,
            "byteOffset" : 505876
        },
        {
            "buffer" : 0,
            "byteLength" : 5357,
            "byteOffset" : 506380
        },
        {
            "buffer" : 0,
            "byteLength" : 1344,
            "byteOffset" : 511740
        },
        {
            "buffer" : 0,
            "byteLength" : 1344,
            "byteOffset" : 513084
        },
        {
            "buffer" : 0,
            "byteLength" : 896,
            "byteOffset" : 514428
        },
        {
            "buffer" : 0,
            "byteLength" : 360,
            "byteOffset" : 515324
        },
        {
            "buffer" : 0,
            "byteLength" : 391193,
            "byteOffset" : 515684
        },
        {
            "buffer" : 0,
            "byteLength" : 2316,
            "byteOffset" : 906880
        },
        {
            "buffer" : 0,
            "byteLength" : 2316,
            "byteOffset" : 909196
        },
        {
            "buffer" : 0,
            "byteLength" : 1544,
            "byteOffset" : 911512
        },
        {
            "buffer" : 0,
            "byteLength" : 816,
            "byteOffset" : 913056
        },
        {
            "buffer" : 0,
            "byteLength" : 378115,
            "byteOffset" : 913872
        },
        {
            "buffer" : 0,
            "byteLength" : 1488,
            "byteOffset" : 1291988
        },
        {
            "buffer" : 0,
            "byteLength" : 1488,
            "byteOffset" : 1293476
        },
        {
            "buffer" : 0,
            "byteLength" : 992,
            "byteOffset" : 1294964
        },
        {
            "buffer" : 0,
            "byteLength" : 384,
            "byteOffset" : 1295956
        },
        {
            "buffer" : 0,
            "byteLength" : 322260,
            "byteOffset" : 1296340
        },
        {
            "buffer" : 0,
            "byteLength" : 2496,
            "byteOffset" : 1618600
        },
        {
            "buffer" : 0,
            "byteLength" : 2496,
            "byteOffset" : 1621096
        },
        {
            "buffer" : 0,
            "byteLength" : 1664,
            "byteOffset" : 1623592
        },
        {
            "buffer" : 0,
            "byteLength" : 1104,
            "byteOffset" : 1625256
        },
        {
            "buffer" : 0,
            "byteLength" : 150658,
            "byteOffset" : 1626360
        },
        {
            "buffer" : 0,
            "byteLength" : 288,
            "byteOffset" : 1777020
        },
        {
            "buffer" : 0,
            "byteLength" : 288,
            "byteOffset" : 1777308
        },
        {
            "buffer" : 0,
            "byteLength" : 192,
            "byteOffset" : 1777596
        },
        {
            "buffer" : 0,
            "byteLength" : 72,
            "byteOffset" : 1777788
        },
        {
            "buffer" : 0,
            "byteLength" : 1182840,
            "byteOffset" : 1777860
        }
    ],
    "samplers" : [
        {
            "magFilter" : 9729,
            "minFilter" : 9987
        }
    ],
    "buffers" : [
        {
            "byteLength" : 2960700,
            "uri" : "data:application/octet-stream;base64,"
        }
    ]
}
