{
    "asset" : {
        "generator" : "Khronos glTF Blender I/O v1.7.33",
        "version" : "2.0"
    },
    "scene" : 0,
    "scenes" : [
        {
            "name" : "Scene",
            "nodes" : [
                0
            ]
        }
    ],
    "nodes" : [
        {
            "mesh" : 0,
            "name" : "cow.003",
            "rotation" : [
                0.0020455215126276016,
                0.2855221629142761,
                -0.012293551117181778,
                0.9582911133766174
            ],
            "translation" : [
                0.7650489807128906,
                -0.20826268196105957,
                -0.5730457305908203
            ]
        }
    ],
    "materials" : [
        {
            "doubleSided" : true,
            "name" : "nose",
            "pbrMetallicRoughness" : {
                "baseColorTexture" : {
                    "index" : 0
                },
                "metallicFactor" : 0,
                "roughnessFactor" : 0.5
            }
        },
        {
            "doubleSided" : true,
            "name" : "body",
            "pbrMetallicRoughness" : {
                "baseColorTexture" : {
                    "index" : 1
                },
                "metallicFactor" : 0,
                "roughnessFactor" : 0.5
            }
        },
        {
            "doubleSided" : true,
            "name" : "hooves",
            "pbrMetallicRoughness" : {
                "baseColorTexture" : {
                    "index" : 2
                },
                "metallicFactor" : 0,
                "roughnessFactor" : 0.5
            }
        },
        {
            "doubleSided" : true,
            "name" : "eyes",
            "pbrMetallicRoughness" : {
                "baseColorTexture" : {
                    "index" : 3
                },
                "metallicFactor" : 0,
                "roughnessFactor" : 0.5
            }
        }
    ],
    "meshes" : [
        {
            "name" : "Object_5.006",
            "primitives" : [
                {
                    "attributes" : {
                        "POSITION" : 0,
                        "NORMAL" : 1,
                        "TEXCOORD_0" : 2
                    },
                    "indices" : 3,
                    "material" : 0
                },
                {
                    "attributes" : {
                        "POSITION" : 4,
                        "NORMAL" : 5,
                        "TEXCOORD_0" : 6
                    },
                    "indices" : 7,
                    "material" : 1
                },
                {
                    "attributes" : {
                        "POSITION" : 8,
                        "NORMAL" : 9,
                        "TEXCOORD_0" : 10
                    },
                    "indices" : 11,
                    "material" : 2
                },
                {
                    "attributes" : {
                        "POSITION" : 12,
                        "NORMAL" : 13,
                        "TEXCOORD_0" : 14
                    },
                    "indices" : 15,
                    "material" : 3
                }
            ]
        }
    ],
    "textures" : [
        {
            "sampler" : 0,
            "source" : 0
        },
        {
            "sampler" : 0,
            "source" : 1
        },
        {
            "sampler" : 0,
            "source" : 2
        },
        {
            "sampler" : 0,
            "source" : 3
        }
    ],
    "images" : [
        {
            "bufferView" : 4,
            "mimeType" : "image/png",
            "name" : "nose_baseColor"
        },
        {
            "bufferView" : 9,
            "mimeType" : "image/png",
            "name" : "body_baseColor"
        },
        {
            "bufferView" : 14,
            "mimeType" : "image/png",
            "name" : "hooves_baseColor"
        },
        {
            "bufferView" : 19,
            "mimeType" : "image/png",
            "name" : "eyes_baseColor"
        }
    ],
    "accessors" : [
        {
            "bufferView" : 0,
            "componentType" : 5126,
            "count" : 120,
            "max" : [
                4.678046226501465,
                5.1146392822265625,
                12.992036819458008
            ],
            "min" : [
                -22.22858428955078,
                3.9712934494018555,
                -11.182686805725098
            ],
            "type" : "VEC3"
        },
        {
            "bufferView" : 1,
            "componentType" : 5126,
            "count" : 120,
            "type" : "VEC3"
        },
        {
            "bufferView" : 2,
            "componentType" : 5126,
            "count" : 120,
            "type" : "VEC2"
        },
        {
            "bufferView" : 3,
            "componentType" : 5123,
            "count" : 306,
            "type" : "SCALAR"
        },
        {
            "bufferView" : 5,
            "componentType" : 5126,
            "count" : 5307,
            "max" : [
                5.33814811706543,
                6.310861587524414,
                12.933002471923828
            ],
            "min" : [
                -22.158000946044922,
                0.866675853729248,
                -11.122042655944824
            ],
            "type" : "VEC3"
        },
        {
            "bufferView" : 6,
            "componentType" : 5126,
            "count" : 5307,
            "type" : "VEC3"
        },
        {
            "bufferView" : 7,
            "componentType" : 5126,
            "count" : 5307,
            "type" : "VEC2"
        },
        {
            "bufferView" : 8,
            "componentType" : 5123,
            "count" : 17280,
            "type" : "SCALAR"
        },
        {
            "bufferView" : 10,
            "componentType" : 5126,
            "count" : 708,
            "max" : [
                5.160178184509277,
                2.0885820388793945,
                10.739981651306152
            ],
            "min" : [
                -20.038311004638672,
                0.7722506523132324,
                -8.731087684631348
            ],
            "type" : "VEC3"
        },
        {
            "bufferView" : 11,
            "componentType" : 5126,
            "count" : 708,
            "type" : "VEC3"
        },
        {
            "bufferView" : 12,
            "componentType" : 5126,
            "count" : 708,
            "type" : "VEC2"
        },
        {
            "bufferView" : 13,
            "componentType" : 5123,
            "count" : 1296,
            "type" : "SCALAR"
        },
        {
            "bufferView" : 15,
            "componentType" : 5126,
            "count" : 66,
            "max" : [
                4.929168701171875,
                5.772146224975586,
                12.417412757873535
            ],
            "min" : [
                -21.76927947998047,
                4.883826732635498,
                -10.718613624572754
            ],
            "type" : "VEC3"
        },
        {
            "bufferView" : 16,
            "componentType" : 5126,
            "count" : 66,
            "type" : "VEC3"
        },
        {
            "bufferView" : 17,
            "componentType" : 5126,
            "count" : 66,
            "type" : "VEC2"
        },
        {
            "bufferView" : 18,
            "componentType" : 5123,
            "count" : 180,
            "type" : "SCALAR"
        }
    ],
    "bufferViews" : [
        {
            "buffer" : 0,
            "byteLength" : 1440,
            "byteOffset" : 0
        },
        {
            "buffer" : 0,
            "byteLength" : 1440,
            "byteOffset" : 1440
        },
        {
            "buffer" : 0,
            "byteLength" : 960,
            "byteOffset" : 2880
        },
        {
            "buffer" : 0,
            "byteLength" : 612,
            "byteOffset" : 3840
        },
        {
            "buffer" : 0,
            "byteLength" : 541970,
            "byteOffset" : 4452
        },
        {
            "buffer" : 0,
            "byteLength" : 63684,
            "byteOffset" : 546424
        },
        {
            "buffer" : 0,
            "byteLength" : 63684,
            "byteOffset" : 610108
        },
        {
            "buffer" : 0,
            "byteLength" : 42456,
            "byteOffset" : 673792
        },
        {
            "buffer" : 0,
            "byteLength" : 34560,
            "byteOffset" : 716248
        },
        {
            "buffer" : 0,
            "byteLength" : 565987,
            "byteOffset" : 750808
        },
        {
            "buffer" : 0,
            "byteLength" : 8496,
            "byteOffset" : 1316796
        },
        {
            "buffer" : 0,
            "byteLength" : 8496,
            "byteOffset" : 1325292
        },
        {
            "buffer" : 0,
            "byteLength" : 5664,
            "byteOffset" : 1333788
        },
        {
            "buffer" : 0,
            "byteLength" : 2592,
            "byteOffset" : 1339452
        },
        {
            "buffer" : 0,
            "byteLength" : 1018058,
            "byteOffset" : 1342044
        },
        {
            "buffer" : 0,
            "byteLength" : 792,
            "byteOffset" : 2360104
        },
        {
            "buffer" : 0,
            "byteLength" : 792,
            "byteOffset" : 2360896
        },
        {
            "buffer" : 0,
            "byteLength" : 528,
            "byteOffset" : 2361688
        },
        {
            "buffer" : 0,
            "byteLength" : 360,
            "byteOffset" : 2362216
        },
        {
            "buffer" : 0,
            "byteLength" : 3150,
            "byteOffset" : 2362576
        }
    ],
    "samplers" : [
        {
            "magFilter" : 9729,
            "minFilter" : 9987
        }
    ],
    "buffers" : [
        {
            "byteLength" : 2365728,
            "uri" : "data:application/octet-stream;base64,"
        }
    ]
}
