{
    "asset" : {
        "generator" : "Khronos glTF Blender I/O v1.7.33",
        "version" : "2.0"
    },
    "scene" : 0,
    "scenes" : [
        {
            "name" : "Scene",
            "nodes" : [
                0
            ]
        }
    ],
    "nodes" : [
        {
            "mesh" : 0,
            "name" : "cow.002",
            "rotation" : [
                -0.03899666294455528,
                -0.23902617394924164,
                0.009607699699699879,
                -0.9701821804046631
            ],
            "translation" : [
                0.7650485038757324,
                -0.20826196670532227,
                -0.5730445384979248
            ]
        }
    ],
    "materials" : [
        {
            "doubleSided" : true,
            "name" : "nose",
            "pbrMetallicRoughness" : {
                "baseColorTexture" : {
                    "index" : 0
                },
                "metallicFactor" : 0,
                "roughnessFactor" : 0.5
            }
        },
        {
            "doubleSided" : true,
            "name" : "body",
            "pbrMetallicRoughness" : {
                "baseColorTexture" : {
                    "index" : 1
                },
                "metallicFactor" : 0,
                "roughnessFactor" : 0.5
            }
        },
        {
            "doubleSided" : true,
            "name" : "hooves",
            "pbrMetallicRoughness" : {
                "baseColorTexture" : {
                    "index" : 2
                },
                "metallicFactor" : 0,
                "roughnessFactor" : 0.5
            }
        },
        {
            "doubleSided" : true,
            "name" : "eyes",
            "pbrMetallicRoughness" : {
                "baseColorTexture" : {
                    "index" : 3
                },
                "metallicFactor" : 0,
                "roughnessFactor" : 0.5
            }
        }
    ],
    "meshes" : [
        {
            "name" : "Object_5.011",
            "primitives" : [
                {
                    "attributes" : {
                        "POSITION" : 0,
                        "NORMAL" : 1,
                        "TEXCOORD_0" : 2
                    },
                    "indices" : 3,
                    "material" : 0
                },
                {
                    "attributes" : {
                        "POSITION" : 4,
                        "NORMAL" : 5,
                        "TEXCOORD_0" : 6
                    },
                    "indices" : 7,
                    "material" : 1
                },
                {
                    "attributes" : {
                        "POSITION" : 8,
                        "NORMAL" : 9,
                        "TEXCOORD_0" : 10
                    },
                    "indices" : 11,
                    "material" : 2
                },
                {
                    "attributes" : {
                        "POSITION" : 12,
                        "NORMAL" : 13,
                        "TEXCOORD_0" : 14
                    },
                    "indices" : 15,
                    "material" : 3
                }
            ]
        }
    ],
    "textures" : [
        {
            "sampler" : 0,
            "source" : 0
        },
        {
            "sampler" : 0,
            "source" : 1
        },
        {
            "sampler" : 0,
            "source" : 2
        },
        {
            "sampler" : 0,
            "source" : 3
        }
    ],
    "images" : [
        {
            "bufferView" : 4,
            "mimeType" : "image/png",
            "name" : "nose_baseColor"
        },
        {
            "bufferView" : 9,
            "mimeType" : "image/png",
            "name" : "body_baseColor"
        },
        {
            "bufferView" : 14,
            "mimeType" : "image/png",
            "name" : "hooves_baseColor"
        },
        {
            "bufferView" : 19,
            "mimeType" : "image/png",
            "name" : "eyes_baseColor"
        }
    ],
    "accessors" : [
        {
            "bufferView" : 0,
            "componentType" : 5126,
            "count" : 40,
            "max" : [
                -2.600034713745117,
                4.349114418029785,
                -0.5534560680389404
            ],
            "min" : [
                -2.9338836669921875,
                3.9193735122680664,
                -0.7883889675140381
            ],
            "type" : "VEC3"
        },
        {
            "bufferView" : 1,
            "componentType" : 5126,
            "count" : 40,
            "type" : "VEC3"
        },
        {
            "bufferView" : 2,
            "componentType" : 5126,
            "count" : 40,
            "type" : "VEC2"
        },
        {
            "bufferView" : 3,
            "componentType" : 5123,
            "count" : 102,
            "type" : "SCALAR"
        },
        {
            "bufferView" : 5,
            "componentType" : 5126,
            "count" : 1769,
            "max" : [
                -1.9399328231811523,
                5.545336723327637,
                -0.6124904155731201
            ],
            "min" : [
                -3.593984603881836,
                0.6027631759643555,
                -7.326569557189941
            ],
            "type" : "VEC3"
        },
        {
            "bufferView" : 6,
            "componentType" : 5126,
            "count" : 1769,
            "type" : "VEC3"
        },
        {
            "bufferView" : 7,
            "componentType" : 5126,
            "count" : 1769,
            "type" : "VEC2"
        },
        {
            "bufferView" : 8,
            "componentType" : 5123,
            "count" : 5760,
            "type" : "SCALAR"
        },
        {
            "bufferView" : 10,
            "componentType" : 5126,
            "count" : 236,
            "max" : [
                -2.1179027557373047,
                1.3230571746826172,
                -2.805511236190796
            ],
            "min" : [
                -3.416015625,
                0.5088100433349609,
                -7.012604713439941
            ],
            "type" : "VEC3"
        },
        {
            "bufferView" : 11,
            "componentType" : 5126,
            "count" : 236,
            "type" : "VEC3"
        },
        {
            "bufferView" : 12,
            "componentType" : 5126,
            "count" : 236,
            "type" : "VEC2"
        },
        {
            "bufferView" : 13,
            "componentType" : 5123,
            "count" : 432,
            "type" : "SCALAR"
        },
        {
            "bufferView" : 15,
            "componentType" : 5126,
            "count" : 22,
            "max" : [
                -2.348912239074707,
                5.006621360778809,
                -1.128080129623413
            ],
            "min" : [
                -3.1850051879882812,
                4.823404312133789,
                -1.3009002208709717
            ],
            "type" : "VEC3"
        },
        {
            "bufferView" : 16,
            "componentType" : 5126,
            "count" : 22,
            "type" : "VEC3"
        },
        {
            "bufferView" : 17,
            "componentType" : 5126,
            "count" : 22,
            "type" : "VEC2"
        },
        {
            "bufferView" : 18,
            "componentType" : 5123,
            "count" : 60,
            "type" : "SCALAR"
        }
    ],
    "bufferViews" : [
        {
            "buffer" : 0,
            "byteLength" : 480,
            "byteOffset" : 0
        },
        {
            "buffer" : 0,
            "byteLength" : 480,
            "byteOffset" : 480
        },
        {
            "buffer" : 0,
            "byteLength" : 320,
            "byteOffset" : 960
        },
        {
            "buffer" : 0,
            "byteLength" : 204,
            "byteOffset" : 1280
        },
        {
            "buffer" : 0,
            "byteLength" : 541970,
            "byteOffset" : 1484
        },
        {
            "buffer" : 0,
            "byteLength" : 21228,
            "byteOffset" : 543456
        },
        {
            "buffer" : 0,
            "byteLength" : 21228,
            "byteOffset" : 564684
        },
        {
            "buffer" : 0,
            "byteLength" : 14152,
            "byteOffset" : 585912
        },
        {
            "buffer" : 0,
            "byteLength" : 11520,
            "byteOffset" : 600064
        },
        {
            "buffer" : 0,
            "byteLength" : 565987,
            "byteOffset" : 611584
        },
        {
            "buffer" : 0,
            "byteLength" : 2832,
            "byteOffset" : 1177572
        },
        {
            "buffer" : 0,
            "byteLength" : 2832,
            "byteOffset" : 1180404
        },
        {
            "buffer" : 0,
            "byteLength" : 1888,
            "byteOffset" : 1183236
        },
        {
            "buffer" : 0,
            "byteLength" : 864,
            "byteOffset" : 1185124
        },
        {
            "buffer" : 0,
            "byteLength" : 1018058,
            "byteOffset" : 1185988
        },
        {
            "buffer" : 0,
            "byteLength" : 264,
            "byteOffset" : 2204048
        },
        {
            "buffer" : 0,
            "byteLength" : 264,
            "byteOffset" : 2204312
        },
        {
            "buffer" : 0,
            "byteLength" : 176,
            "byteOffset" : 2204576
        },
        {
            "buffer" : 0,
            "byteLength" : 120,
            "byteOffset" : 2204752
        },
        {
            "buffer" : 0,
            "byteLength" : 3150,
            "byteOffset" : 2204872
        }
    ],
    "samplers" : [
        {
            "magFilter" : 9729,
            "minFilter" : 9987
        }
    ],
    "buffers" : [
        {
            "byteLength" : 2208024,
            "uri" : "data:application/octet-stream;base64,"
        }
    ]
}
