{
    "asset" : {
        "generator" : "Khronos glTF Blender I/O v1.7.33",
        "version" : "2.0"
    },
    "scene" : 0,
    "scenes" : [
        {
            "name" : "Scene",
            "nodes" : [
                2
            ]
        }
    ],
    "nodes" : [
        {
            "name" : "Bone",
            "rotation" : [
                0.14283612370491028,
                -0.08288821578025818,
                -0.49502259492874146,
                0.8530416488647461
            ],
            "scale" : [
                1.0000001192092896,
                1.0000001192092896,
                1
            ],
            "translation" : [
                -0.6954350471496582,
                -1.3060007095336914,
                0.33238929510116577
            ]
        },
        {
            "mesh" : 0,
            "name" : "Cube.002",
            "skin" : 0
        },
        {
            "children" : [
                1,
                0
            ],
            "name" : "Armature",
            "rotation" : [
                0,
                0,
                0.11305814981460571,
                0.993588387966156
            ],
            "translation" : [
                0.029054030776023865,
                0.073780357837677,
                -1.1331360340118408
            ]
        }
    ],
    "animations" : [
        {
            "channels" : [
                {
                    "sampler" : 0,
                    "target" : {
                        "node" : 0,
                        "path" : "translation"
                    }
                },
                {
                    "sampler" : 1,
                    "target" : {
                        "node" : 0,
                        "path" : "rotation"
                    }
                },
                {
                    "sampler" : 2,
                    "target" : {
                        "node" : 0,
                        "path" : "scale"
                    }
                }
            ],
            "name" : "ArmatureAction",
            "samplers" : [
                {
                    "input" : 13,
                    "interpolation" : "LINEAR",
                    "output" : 14
                },
                {
                    "input" : 13,
                    "interpolation" : "LINEAR",
                    "output" : 15
                },
                {
                    "input" : 16,
                    "interpolation" : "LINEAR",
                    "output" : 17
                }
            ]
        }
    ],
    "materials" : [
        {
            "doubleSided" : true,
            "name" : "match_top",
            "pbrMetallicRoughness" : {
                "baseColorTexture" : {
                    "index" : 0
                },
                "metallicFactor" : 0,
                "roughnessFactor" : 0.4000000059604645
            }
        },
        {
            "doubleSided" : true,
            "name" : "match_stick",
            "pbrMetallicRoughness" : {
                "baseColorTexture" : {
                    "index" : 1
                },
                "metallicFactor" : 0,
                "roughnessFactor" : 0.5
            }
        }
    ],
    "meshes" : [
        {
            "name" : "Cube.003",
            "primitives" : [
                {
                    "attributes" : {
                        "POSITION" : 0,
                        "NORMAL" : 1,
                        "TEXCOORD_0" : 2,
                        "JOINTS_0" : 3,
                        "WEIGHTS_0" : 4
                    },
                    "indices" : 5,
                    "material" : 0
                },
                {
                    "attributes" : {
                        "POSITION" : 6,
                        "NORMAL" : 7,
                        "TEXCOORD_0" : 8,
                        "JOINTS_0" : 9,
                        "WEIGHTS_0" : 10
                    },
                    "indices" : 11,
                    "material" : 1
                }
            ]
        }
    ],
    "textures" : [
        {
            "sampler" : 0,
            "source" : 0
        },
        {
            "sampler" : 0,
            "source" : 1
        }
    ],
    "images" : [
        {
            "bufferView" : 6,
            "mimeType" : "image/png",
            "name" : "match_top_baseColor"
        },
        {
            "bufferView" : 13,
            "mimeType" : "image/png",
            "name" : "match_stick_baseColor"
        }
    ],
    "skins" : [
        {
            "inverseBindMatrices" : 12,
            "joints" : [
                0
            ],
            "name" : "Armature"
        }
    ],
    "accessors" : [
        {
            "bufferView" : 0,
            "componentType" : 5126,
            "count" : 61,
            "max" : [
                0.2620495557785034,
                1.1195424795150757,
                -1.0667943954467773
            ],
            "min" : [
                -0.24273213744163513,
                -0.7179768681526184,
                -1.1384609937667847
            ],
            "type" : "VEC3"
        },
        {
            "bufferView" : 1,
            "componentType" : 5126,
            "count" : 61,
            "type" : "VEC3"
        },
        {
            "bufferView" : 2,
            "componentType" : 5126,
            "count" : 61,
            "type" : "VEC2"
        },
        {
            "bufferView" : 3,
            "componentType" : 5121,
            "count" : 61,
            "type" : "VEC4"
        },
        {
            "bufferView" : 4,
            "componentType" : 5126,
            "count" : 61,
            "type" : "VEC4"
        },
        {
            "bufferView" : 5,
            "componentType" : 5123,
            "count" : 168,
            "type" : "SCALAR"
        },
        {
            "bufferView" : 7,
            "componentType" : 5126,
            "count" : 26,
            "max" : [
                0.2620495557785034,
                0.9893578886985779,
                -1.0751838684082031
            ],
            "min" : [
                -0.20922717452049255,
                -0.7179768681526184,
                -1.1240522861480713
            ],
            "type" : "VEC3"
        },
        {
            "bufferView" : 8,
            "componentType" : 5126,
            "count" : 26,
            "type" : "VEC3"
        },
        {
            "bufferView" : 9,
            "componentType" : 5126,
            "count" : 26,
            "type" : "VEC2"
        },
        {
            "bufferView" : 10,
            "componentType" : 5121,
            "count" : 26,
            "type" : "VEC4"
        },
        {
            "bufferView" : 11,
            "componentType" : 5126,
            "count" : 26,
            "type" : "VEC4"
        },
        {
            "bufferView" : 12,
            "componentType" : 5123,
            "count" : 42,
            "type" : "SCALAR"
        },
        {
            "bufferView" : 14,
            "componentType" : 5126,
            "count" : 1,
            "type" : "MAT4"
        },
        {
            "bufferView" : 15,
            "componentType" : 5126,
            "count" : 45,
            "max" : [
                1.875
            ],
            "min" : [
                0.041666666666666664
            ],
            "type" : "SCALAR"
        },
        {
            "bufferView" : 16,
            "componentType" : 5126,
            "count" : 45,
            "type" : "VEC3"
        },
        {
            "bufferView" : 17,
            "componentType" : 5126,
            "count" : 45,
            "type" : "VEC4"
        },
        {
            "bufferView" : 18,
            "componentType" : 5126,
            "count" : 2,
            "max" : [
                1.875
            ],
            "min" : [
                0.041666666666666664
            ],
            "type" : "SCALAR"
        },
        {
            "bufferView" : 19,
            "componentType" : 5126,
            "count" : 2,
            "type" : "VEC3"
        }
    ],
    "bufferViews" : [
        {
            "buffer" : 0,
            "byteLength" : 732,
            "byteOffset" : 0
        },
        {
            "buffer" : 0,
            "byteLength" : 732,
            "byteOffset" : 732
        },
        {
            "buffer" : 0,
            "byteLength" : 488,
            "byteOffset" : 1464
        },
        {
            "buffer" : 0,
            "byteLength" : 244,
            "byteOffset" : 1952
        },
        {
            "buffer" : 0,
            "byteLength" : 976,
            "byteOffset" : 2196
        },
        {
            "buffer" : 0,
            "byteLength" : 336,
            "byteOffset" : 3172
        },
        {
            "buffer" : 0,
            "byteLength" : 21755,
            "byteOffset" : 3508
        },
        {
            "buffer" : 0,
            "byteLength" : 312,
            "byteOffset" : 25264
        },
        {
            "buffer" : 0,
            "byteLength" : 312,
            "byteOffset" : 25576
        },
        {
            "buffer" : 0,
            "byteLength" : 208,
            "byteOffset" : 25888
        },
        {
            "buffer" : 0,
            "byteLength" : 104,
            "byteOffset" : 26096
        },
        {
            "buffer" : 0,
            "byteLength" : 416,
            "byteOffset" : 26200
        },
        {
            "buffer" : 0,
            "byteLength" : 84,
            "byteOffset" : 26616
        },
        {
            "buffer" : 0,
            "byteLength" : 540012,
            "byteOffset" : 26700
        },
        {
            "buffer" : 0,
            "byteLength" : 64,
            "byteOffset" : 566712
        },
        {
            "buffer" : 0,
            "byteLength" : 180,
            "byteOffset" : 566776
        },
        {
            "buffer" : 0,
            "byteLength" : 540,
            "byteOffset" : 566956
        },
        {
            "buffer" : 0,
            "byteLength" : 720,
            "byteOffset" : 567496
        },
        {
            "buffer" : 0,
            "byteLength" : 8,
            "byteOffset" : 568216
        },
        {
            "buffer" : 0,
            "byteLength" : 24,
            "byteOffset" : 568224
        }
    ],
    "samplers" : [
        {
            "magFilter" : 9729,
            "minFilter" : 9987
        }
    ],
    "buffers" : [
        {
            "byteLength" : 568248,
            "uri" : "data:application/octet-stream;base64,"
        }
    ]
}
