{
    "asset" : {
        "generator" : "Khronos glTF Blender I/O v1.7.33",
        "version" : "2.0"
    },
    "scene" : 0,
    "scenes" : [
        {
            "name" : "Scene",
            "nodes" : [
                2
            ]
        }
    ],
    "nodes" : [
        {
            "name" : "Bone",
            "rotation" : [
                0.14283612370491028,
                -0.08288821578025818,
                -0.49502259492874146,
                0.8530416488647461
            ],
            "scale" : [
                1.0000001192092896,
                1.0000001192092896,
                1
            ],
            "translation" : [
                -0.6954350471496582,
                -1.3060007095336914,
                0.33238929510116577
            ]
        },
        {
            "name" : "Bone.001",
            "rotation" : [
                0,
                1.4019262195574811e-08,
                1.4019262195574811e-08,
                1
            ],
            "translation" : [
                0.02545371651649475,
                -0.8632266521453857,
                1.3242067098617554
            ]
        },
        {
            "children" : [
                0,
                1
            ],
            "name" : "Armature",
            "rotation" : [
                0,
                0,
                0.11305814981460571,
                0.993588387966156
            ],
            "translation" : [
                0.029054030776023865,
                0.073780357837677,
                -1.1331360340118408
            ]
        }
    ],
    "animations" : [
        {
            "channels" : [
                {
                    "sampler" : 0,
                    "target" : {
                        "node" : 0,
                        "path" : "translation"
                    }
                },
                {
                    "sampler" : 1,
                    "target" : {
                        "node" : 0,
                        "path" : "rotation"
                    }
                },
                {
                    "sampler" : 2,
                    "target" : {
                        "node" : 0,
                        "path" : "scale"
                    }
                },
                {
                    "sampler" : 3,
                    "target" : {
                        "node" : 1,
                        "path" : "translation"
                    }
                },
                {
                    "sampler" : 4,
                    "target" : {
                        "node" : 1,
                        "path" : "rotation"
                    }
                },
                {
                    "sampler" : 5,
                    "target" : {
                        "node" : 1,
                        "path" : "scale"
                    }
                }
            ],
            "name" : "ArmatureAction",
            "samplers" : [
                {
                    "input" : 0,
                    "interpolation" : "LINEAR",
                    "output" : 1
                },
                {
                    "input" : 0,
                    "interpolation" : "LINEAR",
                    "output" : 2
                },
                {
                    "input" : 3,
                    "interpolation" : "LINEAR",
                    "output" : 4
                },
                {
                    "input" : 3,
                    "interpolation" : "LINEAR",
                    "output" : 5
                },
                {
                    "input" : 3,
                    "interpolation" : "LINEAR",
                    "output" : 6
                },
                {
                    "input" : 3,
                    "interpolation" : "LINEAR",
                    "output" : 7
                }
            ]
        }
    ],
    "accessors" : [
        {
            "bufferView" : 0,
            "componentType" : 5126,
            "count" : 45,
            "max" : [
                1.875
            ],
            "min" : [
                0.041666666666666664
            ],
            "type" : "SCALAR"
        },
        {
            "bufferView" : 1,
            "componentType" : 5126,
            "count" : 45,
            "type" : "VEC3"
        },
        {
            "bufferView" : 2,
            "componentType" : 5126,
            "count" : 45,
            "type" : "VEC4"
        },
        {
            "bufferView" : 3,
            "componentType" : 5126,
            "count" : 2,
            "max" : [
                1.875
            ],
            "min" : [
                0.041666666666666664
            ],
            "type" : "SCALAR"
        },
        {
            "bufferView" : 4,
            "componentType" : 5126,
            "count" : 2,
            "type" : "VEC3"
        },
        {
            "bufferView" : 5,
            "componentType" : 5126,
            "count" : 2,
            "type" : "VEC3"
        },
        {
            "bufferView" : 6,
            "componentType" : 5126,
            "count" : 2,
            "type" : "VEC4"
        },
        {
            "bufferView" : 7,
            "componentType" : 5126,
            "count" : 2,
            "type" : "VEC3"
        }
    ],
    "bufferViews" : [
        {
            "buffer" : 0,
            "byteLength" : 180,
            "byteOffset" : 0
        },
        {
            "buffer" : 0,
            "byteLength" : 540,
            "byteOffset" : 180
        },
        {
            "buffer" : 0,
            "byteLength" : 720,
            "byteOffset" : 720
        },
        {
            "buffer" : 0,
            "byteLength" : 8,
            "byteOffset" : 1440
        },
        {
            "buffer" : 0,
            "byteLength" : 24,
            "byteOffset" : 1448
        },
        {
            "buffer" : 0,
            "byteLength" : 24,
            "byteOffset" : 1472
        },
        {
            "buffer" : 0,
            "byteLength" : 32,
            "byteOffset" : 1496
        },
        {
            "buffer" : 0,
            "byteLength" : 24,
            "byteOffset" : 1528
        }
    ],
    "buffers" : [
        {
            "byteLength" : 1552,
            "uri" : "data:application/octet-stream;base64,"
        }
    ]
}
