{
    "asset" : {
        "generator" : "Khronos glTF Blender I/O v1.7.33",
        "version" : "2.0"
    },
    "scene" : 0,
    "scenes" : [
        {
            "name" : "Scene",
            "nodes" : [
                3
            ]
        }
    ],
    "nodes" : [
        {
            "name" : "Bone",
            "rotation" : [
                0.15129147469997406,
                -0.06620797514915466,
                -0.3954054117202759,
                0.9035385847091675
            ],
            "scale" : [
                1,
                1,
                0.9999998211860657
            ],
            "translation" : [
                -0.3551880717277527,
                -1.3550740480422974,
                -0.8007468581199646
            ]
        },
        {
            "name" : "Bone.001",
            "rotation" : [
                9.169305315026577e-08,
                -2.2564519142065365e-08,
                0.9999333620071411,
                0.011544110253453255
            ],
            "scale" : [
                0.9999999403953552,
                1,
                1
            ],
            "translation" : [
                -0.1573282778263092,
                -11.223844528198242,
                -0.6439576745033264
            ]
        },
        {
            "mesh" : 0,
            "name" : "Cube.002",
            "skin" : 0
        },
        {
            "children" : [
                2,
                0,
                1
            ],
            "name" : "Armature"
        }
    ],
    "animations" : [
        {
            "channels" : [
                {
                    "sampler" : 0,
                    "target" : {
                        "node" : 0,
                        "path" : "translation"
                    }
                },
                {
                    "sampler" : 1,
                    "target" : {
                        "node" : 0,
                        "path" : "rotation"
                    }
                },
                {
                    "sampler" : 2,
                    "target" : {
                        "node" : 0,
                        "path" : "scale"
                    }
                },
                {
                    "sampler" : 3,
                    "target" : {
                        "node" : 1,
                        "path" : "translation"
                    }
                },
                {
                    "sampler" : 4,
                    "target" : {
                        "node" : 1,
                        "path" : "rotation"
                    }
                },
                {
                    "sampler" : 5,
                    "target" : {
                        "node" : 1,
                        "path" : "scale"
                    }
                }
            ],
            "name" : "ArmatureAction",
            "samplers" : [
                {
                    "input" : 13,
                    "interpolation" : "LINEAR",
                    "output" : 14
                },
                {
                    "input" : 13,
                    "interpolation" : "LINEAR",
                    "output" : 15
                },
                {
                    "input" : 16,
                    "interpolation" : "LINEAR",
                    "output" : 17
                },
                {
                    "input" : 13,
                    "interpolation" : "LINEAR",
                    "output" : 18
                },
                {
                    "input" : 16,
                    "interpolation" : "LINEAR",
                    "output" : 19
                },
                {
                    "input" : 16,
                    "interpolation" : "LINEAR",
                    "output" : 20
                }
            ]
        }
    ],
    "materials" : [
        {
            "doubleSided" : true,
            "name" : "match_top",
            "pbrMetallicRoughness" : {
                "baseColorTexture" : {
                    "index" : 0
                },
                "metallicFactor" : 0,
                "roughnessFactor" : 0.4000000059604645
            }
        },
        {
            "doubleSided" : true,
            "name" : "match_stick",
            "pbrMetallicRoughness" : {
                "baseColorTexture" : {
                    "index" : 1
                },
                "metallicFactor" : 0,
                "roughnessFactor" : 0.5
            }
        }
    ],
    "meshes" : [
        {
            "name" : "Cube.003",
            "primitives" : [
                {
                    "attributes" : {
                        "POSITION" : 0,
                        "NORMAL" : 1,
                        "TEXCOORD_0" : 2,
                        "JOINTS_0" : 3,
                        "WEIGHTS_0" : 4
                    },
                    "indices" : 5,
                    "material" : 0
                },
                {
                    "attributes" : {
                        "POSITION" : 6,
                        "NORMAL" : 7,
                        "TEXCOORD_0" : 8,
                        "JOINTS_0" : 9,
                        "WEIGHTS_0" : 10
                    },
                    "indices" : 11,
                    "material" : 1
                }
            ]
        }
    ],
    "textures" : [
        {
            "sampler" : 0,
            "source" : 0
        },
        {
            "sampler" : 0,
            "source" : 1
        }
    ],
    "images" : [
        {
            "bufferView" : 6,
            "mimeType" : "image/png",
            "name" : "match_top_baseColor"
        },
        {
            "bufferView" : 13,
            "mimeType" : "image/png",
            "name" : "match_stick_baseColor"
        }
    ],
    "skins" : [
        {
            "inverseBindMatrices" : 12,
            "joints" : [
                0,
                1
            ],
            "name" : "Armature"
        }
    ],
    "accessors" : [
        {
            "bufferView" : 0,
            "componentType" : 5126,
            "count" : 72,
            "max" : [
                0.2620495557785034,
                1.8159691095352173,
                -1.0667943954467773
            ],
            "min" : [
                -0.34525907039642334,
                -0.7179768085479736,
                -1.6621935367584229
            ],
            "type" : "VEC3"
        },
        {
            "bufferView" : 1,
            "componentType" : 5126,
            "count" : 72,
            "type" : "VEC3"
        },
        {
            "bufferView" : 2,
            "componentType" : 5126,
            "count" : 72,
            "type" : "VEC2"
        },
        {
            "bufferView" : 3,
            "componentType" : 5121,
            "count" : 72,
            "type" : "VEC4"
        },
        {
            "bufferView" : 4,
            "componentType" : 5126,
            "count" : 72,
            "type" : "VEC4"
        },
        {
            "bufferView" : 5,
            "componentType" : 5123,
            "count" : 174,
            "type" : "SCALAR"
        },
        {
            "bufferView" : 7,
            "componentType" : 5126,
            "count" : 28,
            "max" : [
                0.2620495557785034,
                0.9893578886985779,
                -1.0751838684082031
            ],
            "min" : [
                -0.20922717452049255,
                -0.7179768085479736,
                -1.1240522861480713
            ],
            "type" : "VEC3"
        },
        {
            "bufferView" : 8,
            "componentType" : 5126,
            "count" : 28,
            "type" : "VEC3"
        },
        {
            "bufferView" : 9,
            "componentType" : 5126,
            "count" : 28,
            "type" : "VEC2"
        },
        {
            "bufferView" : 10,
            "componentType" : 5121,
            "count" : 28,
            "type" : "VEC4"
        },
        {
            "bufferView" : 11,
            "componentType" : 5126,
            "count" : 28,
            "type" : "VEC4"
        },
        {
            "bufferView" : 12,
            "componentType" : 5123,
            "count" : 42,
            "type" : "SCALAR"
        },
        {
            "bufferView" : 14,
            "componentType" : 5126,
            "count" : 2,
            "type" : "MAT4"
        },
        {
            "bufferView" : 15,
            "componentType" : 5126,
            "count" : 50,
            "max" : [
                2.0833333333333335
            ],
            "min" : [
                0.041666666666666664
            ],
            "type" : "SCALAR"
        },
        {
            "bufferView" : 16,
            "componentType" : 5126,
            "count" : 50,
            "type" : "VEC3"
        },
        {
            "bufferView" : 17,
            "componentType" : 5126,
            "count" : 50,
            "type" : "VEC4"
        },
        {
            "bufferView" : 18,
            "componentType" : 5126,
            "count" : 2,
            "max" : [
                2.0833333333333335
            ],
            "min" : [
                0.041666666666666664
            ],
            "type" : "SCALAR"
        },
        {
            "bufferView" : 19,
            "componentType" : 5126,
            "count" : 2,
            "type" : "VEC3"
        },
        {
            "bufferView" : 20,
            "componentType" : 5126,
            "count" : 50,
            "type" : "VEC3"
        },
        {
            "bufferView" : 21,
            "componentType" : 5126,
            "count" : 2,
            "type" : "VEC4"
        },
        {
            "bufferView" : 22,
            "componentType" : 5126,
            "count" : 2,
            "type" : "VEC3"
        }
    ],
    "bufferViews" : [
        {
            "buffer" : 0,
            "byteLength" : 864,
            "byteOffset" : 0
        },
        {
            "buffer" : 0,
            "byteLength" : 864,
            "byteOffset" : 864
        },
        {
            "buffer" : 0,
            "byteLength" : 576,
            "byteOffset" : 1728
        },
        {
            "buffer" : 0,
            "byteLength" : 288,
            "byteOffset" : 2304
        },
        {
            "buffer" : 0,
            "byteLength" : 1152,
            "byteOffset" : 2592
        },
        {
            "buffer" : 0,
            "byteLength" : 348,
            "byteOffset" : 3744
        },
        {
            "buffer" : 0,
            "byteLength" : 21755,
            "byteOffset" : 4092
        },
        {
            "buffer" : 0,
            "byteLength" : 336,
            "byteOffset" : 25848
        },
        {
            "buffer" : 0,
            "byteLength" : 336,
            "byteOffset" : 26184
        },
        {
            "buffer" : 0,
            "byteLength" : 224,
            "byteOffset" : 26520
        },
        {
            "buffer" : 0,
            "byteLength" : 112,
            "byteOffset" : 26744
        },
        {
            "buffer" : 0,
            "byteLength" : 448,
            "byteOffset" : 26856
        },
        {
            "buffer" : 0,
            "byteLength" : 84,
            "byteOffset" : 27304
        },
        {
            "buffer" : 0,
            "byteLength" : 540012,
            "byteOffset" : 27388
        },
        {
            "buffer" : 0,
            "byteLength" : 128,
            "byteOffset" : 567400
        },
        {
            "buffer" : 0,
            "byteLength" : 200,
            "byteOffset" : 567528
        },
        {
            "buffer" : 0,
            "byteLength" : 600,
            "byteOffset" : 567728
        },
        {
            "buffer" : 0,
            "byteLength" : 800,
            "byteOffset" : 568328
        },
        {
            "buffer" : 0,
            "byteLength" : 8,
            "byteOffset" : 569128
        },
        {
            "buffer" : 0,
            "byteLength" : 24,
            "byteOffset" : 569136
        },
        {
            "buffer" : 0,
            "byteLength" : 600,
            "byteOffset" : 569160
        },
        {
            "buffer" : 0,
            "byteLength" : 32,
            "byteOffset" : 569760
        },
        {
            "buffer" : 0,
            "byteLength" : 24,
            "byteOffset" : 569792
        }
    ],
    "samplers" : [
        {
            "magFilter" : 9729,
            "minFilter" : 9987
        }
    ],
    "buffers" : [
        {
            "byteLength" : 569816,
            "uri" : "data:application/octet-stream;base64,"
        }
    ]
}
