{
    "asset" : {
        "generator" : "Khronos glTF Blender I/O v1.7.33",
        "version" : "2.0"
    },
    "scene" : 0,
    "scenes" : [
        {
            "name" : "Scene",
            "nodes" : [
                2
            ]
        }
    ],
    "nodes" : [
        {
            "mesh" : 0,
            "name" : "Cube.004",
            "rotation" : [
                0,
                0,
                -0.1130581647157669,
                0.993588387966156
            ],
            "translation" : [
                -0.04488726332783699,
                -0.06536675989627838,
                1.1331360340118408
            ]
        },
        {
            "name" : "Bone",
            "rotation" : [
                0.14283612370491028,
                -0.08288821578025818,
                -0.49502259492874146,
                0.8530416488647461
            ],
            "scale" : [
                1.0000001192092896,
                1.0000001192092896,
                1
            ],
            "translation" : [
                -0.6954350471496582,
                -1.3060007095336914,
                0.33238929510116577
            ]
        },
        {
            "children" : [
                0,
                1
            ],
            "name" : "Armature",
            "rotation" : [
                0,
                0,
                0.11305814981460571,
                0.993588387966156
            ],
            "translation" : [
                0.029054030776023865,
                0.073780357837677,
                -1.1331360340118408
            ]
        }
    ],
    "materials" : [
        {
            "doubleSided" : true,
            "name" : "match_top",
            "pbrMetallicRoughness" : {
                "baseColorTexture" : {
                    "index" : 0
                },
                "metallicFactor" : 0,
                "roughnessFactor" : 0.4000000059604645
            }
        },
        {
            "doubleSided" : true,
            "name" : "match_stick",
            "pbrMetallicRoughness" : {
                "baseColorTexture" : {
                    "index" : 1
                },
                "metallicFactor" : 0,
                "roughnessFactor" : 0.5
            }
        },
        {
            "doubleSided" : true,
            "name" : "matchbox _inside",
            "pbrMetallicRoughness" : {
                "baseColorTexture" : {
                    "index" : 2
                },
                "metallicFactor" : 0,
                "roughnessFactor" : 0.5
            }
        },
        {
            "doubleSided" : true,
            "name" : "matchbox_outside",
            "pbrMetallicRoughness" : {
                "baseColorTexture" : {
                    "index" : 3
                },
                "metallicFactor" : 0,
                "roughnessFactor" : 0.5
            }
        }
    ],
    "meshes" : [
        {
            "name" : "Cube.005",
            "primitives" : [
                {
                    "attributes" : {
                        "POSITION" : 0,
                        "NORMAL" : 1,
                        "TEXCOORD_0" : 2
                    },
                    "indices" : 3,
                    "material" : 0
                },
                {
                    "attributes" : {
                        "POSITION" : 4,
                        "NORMAL" : 5,
                        "TEXCOORD_0" : 6
                    },
                    "indices" : 7,
                    "material" : 1
                },
                {
                    "attributes" : {
                        "POSITION" : 8,
                        "NORMAL" : 9,
                        "TEXCOORD_0" : 10
                    },
                    "indices" : 11,
                    "material" : 2
                },
                {
                    "attributes" : {
                        "POSITION" : 12,
                        "NORMAL" : 13,
                        "TEXCOORD_0" : 14
                    },
                    "indices" : 15,
                    "material" : 3
                }
            ]
        }
    ],
    "textures" : [
        {
            "sampler" : 0,
            "source" : 0
        },
        {
            "sampler" : 0,
            "source" : 1
        },
        {
            "sampler" : 0,
            "source" : 2
        },
        {
            "sampler" : 0,
            "source" : 3
        }
    ],
    "images" : [
        {
            "bufferView" : 4,
            "mimeType" : "image/png",
            "name" : "match_top_baseColor"
        },
        {
            "bufferView" : 9,
            "mimeType" : "image/png",
            "name" : "match_stick_baseColor"
        },
        {
            "bufferView" : 14,
            "mimeType" : "image/png",
            "name" : "matchbox _inside_baseColor"
        },
        {
            "bufferView" : 19,
            "mimeType" : "image/png",
            "name" : "matchbox_outside_baseColor"
        }
    ],
    "accessors" : [
        {
            "bufferView" : 0,
            "componentType" : 5126,
            "count" : 1628,
            "max" : [
                0.17524918913841248,
                1.3262872695922852,
                0.5717952847480774
            ],
            "min" : [
                -0.5249372720718384,
                0.2652433514595032,
                -0.30494728684425354
            ],
            "type" : "VEC3"
        },
        {
            "bufferView" : 1,
            "componentType" : 5126,
            "count" : 1628,
            "type" : "VEC3"
        },
        {
            "bufferView" : 2,
            "componentType" : 5126,
            "count" : 1628,
            "type" : "VEC2"
        },
        {
            "bufferView" : 3,
            "componentType" : 5123,
            "count" : 4032,
            "type" : "SCALAR"
        },
        {
            "bufferView" : 5,
            "componentType" : 5126,
            "count" : 672,
            "max" : [
                0.17524918913841248,
                1.2073731422424316,
                0.563395619392395
            ],
            "min" : [
                -0.49423322081565857,
                0.2652433514595032,
                -0.2902619540691376
            ],
            "type" : "VEC3"
        },
        {
            "bufferView" : 6,
            "componentType" : 5126,
            "count" : 672,
            "type" : "VEC3"
        },
        {
            "bufferView" : 7,
            "componentType" : 5126,
            "count" : 672,
            "type" : "VEC2"
        },
        {
            "bufferView" : 8,
            "componentType" : 5123,
            "count" : 1008,
            "type" : "SCALAR"
        },
        {
            "bufferView" : 10,
            "componentType" : 5126,
            "count" : 146,
            "max" : [
                0.3710680902004242,
                1.4301257133483887,
                0.643035888671875
            ],
            "min" : [
                -0.5847230553627014,
                -0.6278400421142578,
                -0.47707605361938477
            ],
            "type" : "VEC3"
        },
        {
            "bufferView" : 11,
            "componentType" : 5126,
            "count" : 146,
            "type" : "VEC3"
        },
        {
            "bufferView" : 12,
            "componentType" : 5126,
            "count" : 146,
            "type" : "VEC2"
        },
        {
            "bufferView" : 13,
            "componentType" : 5123,
            "count" : 222,
            "type" : "SCALAR"
        },
        {
            "bufferView" : 15,
            "componentType" : 5126,
            "count" : 56,
            "max" : [
                0.5105912089347839,
                1.0371567010879517,
                0.6759004592895508
            ],
            "min" : [
                -0.5105912089347839,
                -1.0371567010879517,
                -0.5099406242370605
            ],
            "type" : "VEC3"
        },
        {
            "bufferView" : 16,
            "componentType" : 5126,
            "count" : 56,
            "type" : "VEC3"
        },
        {
            "bufferView" : 17,
            "componentType" : 5126,
            "count" : 56,
            "type" : "VEC2"
        },
        {
            "bufferView" : 18,
            "componentType" : 5123,
            "count" : 84,
            "type" : "SCALAR"
        }
    ],
    "bufferViews" : [
        {
            "buffer" : 0,
            "byteLength" : 19536,
            "byteOffset" : 0
        },
        {
            "buffer" : 0,
            "byteLength" : 19536,
            "byteOffset" : 19536
        },
        {
            "buffer" : 0,
            "byteLength" : 13024,
            "byteOffset" : 39072
        },
        {
            "buffer" : 0,
            "byteLength" : 8064,
            "byteOffset" : 52096
        },
        {
            "buffer" : 0,
            "byteLength" : 21755,
            "byteOffset" : 60160
        },
        {
            "buffer" : 0,
            "byteLength" : 8064,
            "byteOffset" : 81916
        },
        {
            "buffer" : 0,
            "byteLength" : 8064,
            "byteOffset" : 89980
        },
        {
            "buffer" : 0,
            "byteLength" : 5376,
            "byteOffset" : 98044
        },
        {
            "buffer" : 0,
            "byteLength" : 2016,
            "byteOffset" : 103420
        },
        {
            "buffer" : 0,
            "byteLength" : 540012,
            "byteOffset" : 105436
        },
        {
            "buffer" : 0,
            "byteLength" : 1752,
            "byteOffset" : 645448
        },
        {
            "buffer" : 0,
            "byteLength" : 1752,
            "byteOffset" : 647200
        },
        {
            "buffer" : 0,
            "byteLength" : 1168,
            "byteOffset" : 648952
        },
        {
            "buffer" : 0,
            "byteLength" : 444,
            "byteOffset" : 650120
        },
        {
            "buffer" : 0,
            "byteLength" : 183744,
            "byteOffset" : 650564
        },
        {
            "buffer" : 0,
            "byteLength" : 672,
            "byteOffset" : 834308
        },
        {
            "buffer" : 0,
            "byteLength" : 672,
            "byteOffset" : 834980
        },
        {
            "buffer" : 0,
            "byteLength" : 448,
            "byteOffset" : 835652
        },
        {
            "buffer" : 0,
            "byteLength" : 168,
            "byteOffset" : 836100
        },
        {
            "buffer" : 0,
            "byteLength" : 936684,
            "byteOffset" : 836268
        }
    ],
    "samplers" : [
        {
            "magFilter" : 9729,
            "minFilter" : 9987
        }
    ],
    "buffers" : [
        {
            "byteLength" : 1772952,
            "uri" : "data:application/octet-stream;base64,"
        }
    ]
}
