{
    "asset" : {
        "generator" : "Khronos glTF Blender I/O v1.7.33",
        "version" : "2.0"
    },
    "scene" : 0,
    "scenes" : [
        {
            "name" : "Scene",
            "nodes" : [
                0
            ]
        }
    ],
    "nodes" : [
        {
            "mesh" : 0,
            "name" : "Head.002",
            "translation" : [
                -3.215543270111084,
                2.8455212116241455,
                5.36380672454834
            ]
        }
    ],
    "meshes" : [
        {
            "name" : "Mesh.006",
            "primitives" : [
                {
                    "attributes" : {
                        "POSITION" : 0,
                        "NORMAL" : 1,
                        "TEXCOORD_0" : 2,
                        "TEXCOORD_1" : 3
                    },
                    "indices" : 4
                }
            ]
        }
    ],
    "accessors" : [
        {
            "bufferView" : 0,
            "componentType" : 5126,
            "count" : 4378,
            "max" : [
                2.1433629989624023,
                1.965242624282837,
                0.451291561126709
            ],
            "min" : [
                -2.143366813659668,
                -2.649543046951294,
                -0.5563182830810547
            ],
            "type" : "VEC3"
        },
        {
            "bufferView" : 1,
            "componentType" : 5126,
            "count" : 4378,
            "type" : "VEC3"
        },
        {
            "bufferView" : 2,
            "componentType" : 5126,
            "count" : 4378,
            "type" : "VEC2"
        },
        {
            "bufferView" : 3,
            "componentType" : 5126,
            "count" : 4378,
            "type" : "VEC2"
        },
        {
            "bufferView" : 4,
            "componentType" : 5123,
            "count" : 16560,
            "type" : "SCALAR"
        }
    ],
    "bufferViews" : [
        {
            "buffer" : 0,
            "byteLength" : 52536,
            "byteOffset" : 0
        },
        {
            "buffer" : 0,
            "byteLength" : 52536,
            "byteOffset" : 52536
        },
        {
            "buffer" : 0,
            "byteLength" : 35024,
            "byteOffset" : 105072
        },
        {
            "buffer" : 0,
            "byteLength" : 35024,
            "byteOffset" : 140096
        },
        {
            "buffer" : 0,
            "byteLength" : 33120,
            "byteOffset" : 175120
        }
    ],
    "buffers" : [
        {
            "byteLength" : 208240,
            "uri" : "data:application/octet-stream;base64,"
        }
    ]
}
