{
    "asset" : {
        "generator" : "Khronos glTF Blender I/O v1.7.33",
        "version" : "2.0"
    },
    "scene" : 0,
    "scenes" : [
        {
            "name" : "Scene",
            "nodes" : [
                0
            ]
        }
    ],
    "nodes" : [
        {
            "mesh" : 0,
            "name" : "Mesh.001"
        }
    ],
    "materials" : [
        {
            "doubleSided" : true,
            "name" : "Material.003",
            "pbrMetallicRoughness" : {
                "baseColorFactor" : [
                    0.13563336431980133,
                    0.11953844130039215,
                    0.08650045096874237,
                    1
                ],
                "metallicFactor" : 0
            }
        },
        {
            "doubleSided" : true,
            "name" : "Material.002",
            "pbrMetallicRoughness" : {
                "baseColorFactor" : [
                    0.800000011920929,
                    0.800000011920929,
                    0.800000011920929,
                    1
                ],
                "metallicFactor" : 0,
                "roughnessFactor" : 0.5
            }
        },
        {
            "doubleSided" : true,
            "name" : "eyebrow",
            "pbrMetallicRoughness" : {
                "baseColorFactor" : [
                    0.800000011920929,
                    0.800000011920929,
                    0.800000011920929,
                    1
                ],
                "metallicFactor" : 0,
                "roughnessFactor" : 0.5
            }
        }
    ],
    "meshes" : [
        {
            "name" : "Mesh.008",
            "primitives" : [
                {
                    "attributes" : {
                        "POSITION" : 0,
                        "NORMAL" : 1,
                        "TEXCOORD_0" : 2,
                        "TEXCOORD_1" : 3
                    },
                    "indices" : 4,
                    "material" : 0
                },
                {
                    "attributes" : {
                        "POSITION" : 5,
                        "NORMAL" : 6,
                        "TEXCOORD_0" : 7,
                        "TEXCOORD_1" : 8
                    },
                    "indices" : 9,
                    "material" : 1
                },
                {
                    "attributes" : {
                        "POSITION" : 10,
                        "NORMAL" : 11,
                        "TEXCOORD_0" : 12,
                        "TEXCOORD_1" : 13
                    },
                    "indices" : 14,
                    "material" : 2
                }
            ]
        }
    ],
    "accessors" : [
        {
            "bufferView" : 0,
            "componentType" : 5126,
            "count" : 3,
            "max" : [
                -3.442533016204834,
                5.3905110359191895,
                5.426840305328369
            ],
            "min" : [
                -3.46710205078125,
                5.347990989685059,
                5.404934883117676
            ],
            "type" : "VEC3"
        },
        {
            "bufferView" : 1,
            "componentType" : 5126,
            "count" : 3,
            "type" : "VEC3"
        },
        {
            "bufferView" : 2,
            "componentType" : 5126,
            "count" : 3,
            "type" : "VEC2"
        },
        {
            "bufferView" : 3,
            "componentType" : 5126,
            "count" : 3,
            "type" : "VEC2"
        },
        {
            "bufferView" : 4,
            "componentType" : 5123,
            "count" : 3,
            "type" : "SCALAR"
        },
        {
            "bufferView" : 5,
            "componentType" : 5126,
            "count" : 4398,
            "max" : [
                -3.0679850578308105,
                5.3334126472473145,
                5.731002330780029
            ],
            "min" : [
                -3.3631486892700195,
                5.251866817474365,
                5.650301933288574
            ],
            "type" : "VEC3"
        },
        {
            "bufferView" : 6,
            "componentType" : 5126,
            "count" : 4398,
            "type" : "VEC3"
        },
        {
            "bufferView" : 7,
            "componentType" : 5126,
            "count" : 4398,
            "type" : "VEC2"
        },
        {
            "bufferView" : 8,
            "componentType" : 5126,
            "count" : 4398,
            "type" : "VEC2"
        },
        {
            "bufferView" : 9,
            "componentType" : 5123,
            "count" : 23808,
            "type" : "SCALAR"
        },
        {
            "bufferView" : 10,
            "componentType" : 5126,
            "count" : 6286,
            "max" : [
                -2.7854840755462646,
                5.740540981292725,
                5.8457231521606445
            ],
            "min" : [
                -3.6456055641174316,
                4.633604049682617,
                5.0403151512146
            ],
            "type" : "VEC3"
        },
        {
            "bufferView" : 11,
            "componentType" : 5126,
            "count" : 6286,
            "type" : "VEC3"
        },
        {
            "bufferView" : 12,
            "componentType" : 5126,
            "count" : 6286,
            "type" : "VEC2"
        },
        {
            "bufferView" : 13,
            "componentType" : 5126,
            "count" : 6286,
            "type" : "VEC2"
        },
        {
            "bufferView" : 14,
            "componentType" : 5123,
            "count" : 21951,
            "type" : "SCALAR"
        }
    ],
    "bufferViews" : [
        {
            "buffer" : 0,
            "byteLength" : 36,
            "byteOffset" : 0
        },
        {
            "buffer" : 0,
            "byteLength" : 36,
            "byteOffset" : 36
        },
        {
            "buffer" : 0,
            "byteLength" : 24,
            "byteOffset" : 72
        },
        {
            "buffer" : 0,
            "byteLength" : 24,
            "byteOffset" : 96
        },
        {
            "buffer" : 0,
            "byteLength" : 6,
            "byteOffset" : 120
        },
        {
            "buffer" : 0,
            "byteLength" : 52776,
            "byteOffset" : 128
        },
        {
            "buffer" : 0,
            "byteLength" : 52776,
            "byteOffset" : 52904
        },
        {
            "buffer" : 0,
            "byteLength" : 35184,
            "byteOffset" : 105680
        },
        {
            "buffer" : 0,
            "byteLength" : 35184,
            "byteOffset" : 140864
        },
        {
            "buffer" : 0,
            "byteLength" : 47616,
            "byteOffset" : 176048
        },
        {
            "buffer" : 0,
            "byteLength" : 75432,
            "byteOffset" : 223664
        },
        {
            "buffer" : 0,
            "byteLength" : 75432,
            "byteOffset" : 299096
        },
        {
            "buffer" : 0,
            "byteLength" : 50288,
            "byteOffset" : 374528
        },
        {
            "buffer" : 0,
            "byteLength" : 50288,
            "byteOffset" : 424816
        },
        {
            "buffer" : 0,
            "byteLength" : 43902,
            "byteOffset" : 475104
        }
    ],
    "buffers" : [
        {
            "byteLength" : 519008,
            "uri" : "data:application/octet-stream;base64,"
        }
    ]
}
