{
    "asset" : {
        "generator" : "Khronos glTF Blender I/O v1.7.33",
        "version" : "2.0"
    },
    "scene" : 0,
    "scenes" : [
        {
            "name" : "Scene",
            "nodes" : [
                0
            ]
        }
    ],
    "nodes" : [
        {
            "mesh" : 0,
            "name" : "Head.002"
        }
    ],
    "meshes" : [
        {
            "name" : "Mesh.006",
            "primitives" : [
                {
                    "attributes" : {
                        "POSITION" : 0,
                        "NORMAL" : 1,
                        "TEXCOORD_0" : 2,
                        "TEXCOORD_1" : 3
                    },
                    "indices" : 4
                }
            ]
        }
    ],
    "accessors" : [
        {
            "bufferView" : 0,
            "componentType" : 5126,
            "count" : 5727,
            "max" : [
                -1.0721802711486816,
                5.706521034240723,
                5.848355293273926
            ],
            "min" : [
                -5.358910083770752,
                0.19597816467285156,
                4.807488441467285
            ],
            "type" : "VEC3"
        },
        {
            "bufferView" : 1,
            "componentType" : 5126,
            "count" : 5727,
            "type" : "VEC3"
        },
        {
            "bufferView" : 2,
            "componentType" : 5126,
            "count" : 5727,
            "type" : "VEC2"
        },
        {
            "bufferView" : 3,
            "componentType" : 5126,
            "count" : 5727,
            "type" : "VEC2"
        },
        {
            "bufferView" : 4,
            "componentType" : 5123,
            "count" : 21636,
            "type" : "SCALAR"
        }
    ],
    "bufferViews" : [
        {
            "buffer" : 0,
            "byteLength" : 68724,
            "byteOffset" : 0
        },
        {
            "buffer" : 0,
            "byteLength" : 68724,
            "byteOffset" : 68724
        },
        {
            "buffer" : 0,
            "byteLength" : 45816,
            "byteOffset" : 137448
        },
        {
            "buffer" : 0,
            "byteLength" : 45816,
            "byteOffset" : 183264
        },
        {
            "buffer" : 0,
            "byteLength" : 43272,
            "byteOffset" : 229080
        }
    ],
    "buffers" : [
        {
            "byteLength" : 272352,
            "uri" : "data:application/octet-stream;base64,"
        }
    ]
}
