{
    "asset" : {
        "generator" : "Khronos glTF Blender I/O v1.7.33",
        "version" : "2.0"
    },
    "scene" : 0,
    "scenes" : [
        {
            "name" : "Scene",
            "nodes" : [
                0
            ]
        }
    ],
    "nodes" : [
        {
            "mesh" : 0,
            "name" : "cupboards.002",
            "scale" : [
                0.7515292763710022,
                0.8830217719078064,
                0.21377559006214142
            ],
            "translation" : [
                0.8132067322731018,
                7.217798709869385,
                7.90507698059082
            ]
        }
    ],
    "materials" : [
        {
            "doubleSided" : true,
            "name" : "base",
            "pbrMetallicRoughness" : {
                "baseColorFactor" : [
                    0.800000011920929,
                    0.800000011920929,
                    0.800000011920929,
                    1
                ],
                "metallicFactor" : 0,
                "roughnessFactor" : 0.5
            }
        },
        {
            "doubleSided" : true,
            "name" : "cabinets",
            "pbrMetallicRoughness" : {
                "baseColorFactor" : [
                    0.8000000715255737,
                    0.4833855628967285,
                    0.6033810377120972,
                    1
                ],
                "metallicFactor" : 0,
                "roughnessFactor" : 0.5
            }
        },
        {
            "doubleSided" : true,
            "name" : "handles",
            "pbrMetallicRoughness" : {
                "baseColorFactor" : [
                    0.8000000715255737,
                    0.1582147777080536,
                    0.3228764832019806,
                    1
                ],
                "metallicFactor" : 0,
                "roughnessFactor" : 0.5
            }
        },
        {
            "doubleSided" : true,
            "name" : "counter",
            "pbrMetallicRoughness" : {
                "baseColorFactor" : [
                    0.8000000715255737,
                    0.6868029236793518,
                    0.23003026843070984,
                    1
                ],
                "metallicFactor" : 0,
                "roughnessFactor" : 0.5
            }
        },
        {
            "doubleSided" : true,
            "name" : "sink",
            "pbrMetallicRoughness" : {
                "baseColorFactor" : [
                    0.6368582844734192,
                    0.8000000715255737,
                    0.3564507067203522,
                    1
                ],
                "metallicFactor" : 0,
                "roughnessFactor" : 0.5
            }
        }
    ],
    "meshes" : [
        {
            "name" : "Cube.002",
            "primitives" : [
                {
                    "attributes" : {
                        "POSITION" : 0,
                        "NORMAL" : 1,
                        "TEXCOORD_0" : 2
                    },
                    "indices" : 3,
                    "material" : 0
                },
                {
                    "attributes" : {
                        "POSITION" : 4,
                        "NORMAL" : 5,
                        "TEXCOORD_0" : 6
                    },
                    "indices" : 7,
                    "material" : 1
                },
                {
                    "attributes" : {
                        "POSITION" : 8,
                        "NORMAL" : 9,
                        "TEXCOORD_0" : 10
                    },
                    "indices" : 11,
                    "material" : 2
                },
                {
                    "attributes" : {
                        "POSITION" : 12,
                        "NORMAL" : 13,
                        "TEXCOORD_0" : 14
                    },
                    "indices" : 15,
                    "material" : 3
                },
                {
                    "attributes" : {
                        "POSITION" : 16,
                        "NORMAL" : 17,
                        "TEXCOORD_0" : 18
                    },
                    "indices" : 19,
                    "material" : 4
                }
            ]
        }
    ],
    "accessors" : [
        {
            "bufferView" : 0,
            "componentType" : 5126,
            "count" : 294,
            "max" : [
                6.78178596496582,
                0.9554605484008789,
                4.982337951660156
            ],
            "min" : [
                -3.507740020751953,
                -8.088894844055176,
                -53.589149475097656
            ],
            "type" : "VEC3"
        },
        {
            "bufferView" : 1,
            "componentType" : 5126,
            "count" : 294,
            "type" : "VEC3"
        },
        {
            "bufferView" : 2,
            "componentType" : 5126,
            "count" : 294,
            "type" : "VEC2"
        },
        {
            "bufferView" : 3,
            "componentType" : 5123,
            "count" : 612,
            "type" : "SCALAR"
        },
        {
            "bufferView" : 4,
            "componentType" : 5126,
            "count" : 1320,
            "max" : [
                5.437966823577881,
                0.9238741397857666,
                0.13326066732406616
            ],
            "min" : [
                -3.3335609436035156,
                -7.669676780700684,
                -53.35744857788086
            ],
            "type" : "VEC3"
        },
        {
            "bufferView" : 5,
            "componentType" : 5126,
            "count" : 1320,
            "type" : "VEC3"
        },
        {
            "bufferView" : 6,
            "componentType" : 5126,
            "count" : 1320,
            "type" : "VEC2"
        },
        {
            "bufferView" : 7,
            "componentType" : 5123,
            "count" : 1980,
            "type" : "SCALAR"
        },
        {
            "bufferView" : 8,
            "componentType" : 5126,
            "count" : 2048,
            "max" : [
                5.330042362213135,
                -0.858415961265564,
                -0.24614779651165009
            ],
            "min" : [
                -1.7991478443145752,
                -7.047280788421631,
                -48.519039154052734
            ],
            "type" : "VEC3"
        },
        {
            "bufferView" : 9,
            "componentType" : 5126,
            "count" : 2048,
            "type" : "VEC3"
        },
        {
            "bufferView" : 10,
            "componentType" : 5126,
            "count" : 2048,
            "type" : "VEC2"
        },
        {
            "bufferView" : 11,
            "componentType" : 5123,
            "count" : 4224,
            "type" : "SCALAR"
        },
        {
            "bufferView" : 12,
            "componentType" : 5126,
            "count" : 54,
            "max" : [
                6.78178596496582,
                -4.705496788024902,
                0.2402973175048828
            ],
            "min" : [
                -1.1765117645263672,
                -4.792991638183594,
                -51.78267288208008
            ],
            "type" : "VEC3"
        },
        {
            "bufferView" : 13,
            "componentType" : 5126,
            "count" : 54,
            "type" : "VEC3"
        },
        {
            "bufferView" : 14,
            "componentType" : 5126,
            "count" : 54,
            "type" : "VEC2"
        },
        {
            "bufferView" : 15,
            "componentType" : 5123,
            "count" : 102,
            "type" : "SCALAR"
        },
        {
            "bufferView" : 16,
            "componentType" : 5126,
            "count" : 652,
            "max" : [
                6.749726295471191,
                -4.248279571533203,
                -16.622024536132812
            ],
            "min" : [
                4.3932294845581055,
                -6.94180154800415,
                -29.60240364074707
            ],
            "type" : "VEC3"
        },
        {
            "bufferView" : 17,
            "componentType" : 5126,
            "count" : 652,
            "type" : "VEC3"
        },
        {
            "bufferView" : 18,
            "componentType" : 5126,
            "count" : 652,
            "type" : "VEC2"
        },
        {
            "bufferView" : 19,
            "componentType" : 5123,
            "count" : 1902,
            "type" : "SCALAR"
        }
    ],
    "bufferViews" : [
        {
            "buffer" : 0,
            "byteLength" : 3528,
            "byteOffset" : 0
        },
        {
            "buffer" : 0,
            "byteLength" : 3528,
            "byteOffset" : 3528
        },
        {
            "buffer" : 0,
            "byteLength" : 2352,
            "byteOffset" : 7056
        },
        {
            "buffer" : 0,
            "byteLength" : 1224,
            "byteOffset" : 9408
        },
        {
            "buffer" : 0,
            "byteLength" : 15840,
            "byteOffset" : 10632
        },
        {
            "buffer" : 0,
            "byteLength" : 15840,
            "byteOffset" : 26472
        },
        {
            "buffer" : 0,
            "byteLength" : 10560,
            "byteOffset" : 42312
        },
        {
            "buffer" : 0,
            "byteLength" : 3960,
            "byteOffset" : 52872
        },
        {
            "buffer" : 0,
            "byteLength" : 24576,
            "byteOffset" : 56832
        },
        {
            "buffer" : 0,
            "byteLength" : 24576,
            "byteOffset" : 81408
        },
        {
            "buffer" : 0,
            "byteLength" : 16384,
            "byteOffset" : 105984
        },
        {
            "buffer" : 0,
            "byteLength" : 8448,
            "byteOffset" : 122368
        },
        {
            "buffer" : 0,
            "byteLength" : 648,
            "byteOffset" : 130816
        },
        {
            "buffer" : 0,
            "byteLength" : 648,
            "byteOffset" : 131464
        },
        {
            "buffer" : 0,
            "byteLength" : 432,
            "byteOffset" : 132112
        },
        {
            "buffer" : 0,
            "byteLength" : 204,
            "byteOffset" : 132544
        },
        {
            "buffer" : 0,
            "byteLength" : 7824,
            "byteOffset" : 132748
        },
        {
            "buffer" : 0,
            "byteLength" : 7824,
            "byteOffset" : 140572
        },
        {
            "buffer" : 0,
            "byteLength" : 5216,
            "byteOffset" : 148396
        },
        {
            "buffer" : 0,
            "byteLength" : 3804,
            "byteOffset" : 153612
        }
    ],
    "buffers" : [
        {
            "byteLength" : 157416,
            "uri" : "data:application/octet-stream;base64,"
        }
    ]
}
