{
    "asset" : {
        "generator" : "Khronos glTF Blender I/O v1.7.33",
        "version" : "2.0"
    },
    "scene" : 0,
    "scenes" : [
        {
            "name" : "Scene",
            "nodes" : [
                0
            ]
        }
    ],
    "nodes" : [
        {
            "mesh" : 0,
            "name" : "room"
        }
    ],
    "materials" : [
        {
            "doubleSided" : true,
            "name" : "wallpaper",
            "pbrMetallicRoughness" : {
                "baseColorFactor" : [
                    0.800000011920929,
                    0.800000011920929,
                    0.800000011920929,
                    1
                ],
                "metallicFactor" : 0,
                "roughnessFactor" : 0.5
            }
        },
        {
            "doubleSided" : true,
            "name" : "ceiling",
            "pbrMetallicRoughness" : {
                "baseColorFactor" : [
                    0.8000000715255737,
                    0.5726130604743958,
                    0.37742865085601807,
                    1
                ],
                "metallicFactor" : 0,
                "roughnessFactor" : 0.5
            }
        },
        {
            "doubleSided" : true,
            "name" : "floor",
            "pbrMetallicRoughness" : {
                "baseColorFactor" : [
                    0.5629010200500488,
                    0.8000000715255737,
                    0.2570742070674896,
                    1
                ],
                "metallicFactor" : 0,
                "roughnessFactor" : 0.5
            }
        },
        {
            "doubleSided" : true,
            "name" : "frames",
            "pbrMetallicRoughness" : {
                "baseColorFactor" : [
                    0.8000000715255737,
                    0.15525545179843903,
                    0.24816453456878662,
                    1
                ],
                "metallicFactor" : 0,
                "roughnessFactor" : 0.5
            }
        }
    ],
    "meshes" : [
        {
            "name" : "Plane",
            "primitives" : [
                {
                    "attributes" : {
                        "POSITION" : 0,
                        "NORMAL" : 1,
                        "TEXCOORD_0" : 2
                    },
                    "indices" : 3,
                    "material" : 0
                },
                {
                    "attributes" : {
                        "POSITION" : 4,
                        "NORMAL" : 5,
                        "TEXCOORD_0" : 6
                    },
                    "indices" : 7,
                    "material" : 1
                },
                {
                    "attributes" : {
                        "POSITION" : 8,
                        "NORMAL" : 9,
                        "TEXCOORD_0" : 10
                    },
                    "indices" : 11,
                    "material" : 2
                },
                {
                    "attributes" : {
                        "POSITION" : 12,
                        "NORMAL" : 13,
                        "TEXCOORD_0" : 14
                    },
                    "indices" : 15,
                    "material" : 3
                }
            ]
        }
    ],
    "accessors" : [
        {
            "bufferView" : 0,
            "componentType" : 5126,
            "count" : 107,
            "max" : [
                5.904911518096924,
                8.061487197875977,
                9.243746757507324
            ],
            "min" : [
                -5.735287666320801,
                0.2732304334640503,
                -9.955170631408691
            ],
            "type" : "VEC3"
        },
        {
            "bufferView" : 1,
            "componentType" : 5126,
            "count" : 107,
            "type" : "VEC3"
        },
        {
            "bufferView" : 2,
            "componentType" : 5126,
            "count" : 107,
            "type" : "VEC2"
        },
        {
            "bufferView" : 3,
            "componentType" : 5123,
            "count" : 189,
            "type" : "SCALAR"
        },
        {
            "bufferView" : 4,
            "componentType" : 5126,
            "count" : 4,
            "max" : [
                5.904911518096924,
                8.061487197875977,
                9.103194236755371
            ],
            "min" : [
                -5.735287666320801,
                8.061487197875977,
                -9.955170631408691
            ],
            "type" : "VEC3"
        },
        {
            "bufferView" : 5,
            "componentType" : 5126,
            "count" : 4,
            "type" : "VEC3"
        },
        {
            "bufferView" : 6,
            "componentType" : 5126,
            "count" : 4,
            "type" : "VEC2"
        },
        {
            "bufferView" : 7,
            "componentType" : 5123,
            "count" : 6,
            "type" : "SCALAR"
        },
        {
            "bufferView" : 8,
            "componentType" : 5126,
            "count" : 14,
            "max" : [
                5.904911518096924,
                0.2732347249984741,
                9.103194236755371
            ],
            "min" : [
                -5.735287666320801,
                0.2732342481613159,
                -9.955170631408691
            ],
            "type" : "VEC3"
        },
        {
            "bufferView" : 9,
            "componentType" : 5126,
            "count" : 14,
            "type" : "VEC3"
        },
        {
            "bufferView" : 10,
            "componentType" : 5126,
            "count" : 14,
            "type" : "VEC2"
        },
        {
            "bufferView" : 11,
            "componentType" : 5123,
            "count" : 36,
            "type" : "SCALAR"
        },
        {
            "bufferView" : 12,
            "componentType" : 5126,
            "count" : 306,
            "max" : [
                6.181121349334717,
                6.895843029022217,
                9.243746757507324
            ],
            "min" : [
                -5.880687713623047,
                0.2732304334640503,
                -10.192994117736816
            ],
            "type" : "VEC3"
        },
        {
            "bufferView" : 13,
            "componentType" : 5126,
            "count" : 306,
            "type" : "VEC3"
        },
        {
            "bufferView" : 14,
            "componentType" : 5126,
            "count" : 306,
            "type" : "VEC2"
        },
        {
            "bufferView" : 15,
            "componentType" : 5123,
            "count" : 474,
            "type" : "SCALAR"
        }
    ],
    "bufferViews" : [
        {
            "buffer" : 0,
            "byteLength" : 1284,
            "byteOffset" : 0
        },
        {
            "buffer" : 0,
            "byteLength" : 1284,
            "byteOffset" : 1284
        },
        {
            "buffer" : 0,
            "byteLength" : 856,
            "byteOffset" : 2568
        },
        {
            "buffer" : 0,
            "byteLength" : 378,
            "byteOffset" : 3424
        },
        {
            "buffer" : 0,
            "byteLength" : 48,
            "byteOffset" : 3804
        },
        {
            "buffer" : 0,
            "byteLength" : 48,
            "byteOffset" : 3852
        },
        {
            "buffer" : 0,
            "byteLength" : 32,
            "byteOffset" : 3900
        },
        {
            "buffer" : 0,
            "byteLength" : 12,
            "byteOffset" : 3932
        },
        {
            "buffer" : 0,
            "byteLength" : 168,
            "byteOffset" : 3944
        },
        {
            "buffer" : 0,
            "byteLength" : 168,
            "byteOffset" : 4112
        },
        {
            "buffer" : 0,
            "byteLength" : 112,
            "byteOffset" : 4280
        },
        {
            "buffer" : 0,
            "byteLength" : 72,
            "byteOffset" : 4392
        },
        {
            "buffer" : 0,
            "byteLength" : 3672,
            "byteOffset" : 4464
        },
        {
            "buffer" : 0,
            "byteLength" : 3672,
            "byteOffset" : 8136
        },
        {
            "buffer" : 0,
            "byteLength" : 2448,
            "byteOffset" : 11808
        },
        {
            "buffer" : 0,
            "byteLength" : 948,
            "byteOffset" : 14256
        }
    ],
    "buffers" : [
        {
            "byteLength" : 15204,
            "uri" : "data:application/octet-stream;base64,"
        }
    ]
}
