{
    "asset" : {
        "generator" : "Khronos glTF Blender I/O v1.7.33",
        "version" : "2.0"
    },
    "scene" : 0,
    "scenes" : [
        {
            "name" : "Scene",
            "nodes" : [
                0
            ]
        }
    ],
    "nodes" : [
        {
            "mesh" : 0,
            "name" : "stove"
        }
    ],
    "materials" : [
        {
            "doubleSided" : true,
            "name" : "oven",
            "pbrMetallicRoughness" : {
                "baseColorFactor" : [
                    0.37144431471824646,
                    0.18309253454208374,
                    0.8000000715255737,
                    1
                ],
                "metallicFactor" : 0,
                "roughnessFactor" : 0.5
            }
        },
        {
            "doubleSided" : true,
            "name" : "burner",
            "pbrMetallicRoughness" : {
                "baseColorFactor" : [
                    0.8000000715255737,
                    0.09479963779449463,
                    0.20699097216129303,
                    1
                ],
                "metallicFactor" : 0,
                "roughnessFactor" : 0.5
            }
        },
        {
            "doubleSided" : true,
            "name" : "handle",
            "pbrMetallicRoughness" : {
                "baseColorFactor" : [
                    0.8000000715255737,
                    0.34221136569976807,
                    0.5254117250442505,
                    1
                ],
                "metallicFactor" : 0,
                "roughnessFactor" : 0.5
            }
        },
        {
            "doubleSided" : true,
            "name" : "dial",
            "pbrMetallicRoughness" : {
                "baseColorFactor" : [
                    0.8000000715255737,
                    0.24987563490867615,
                    0.19518877565860748,
                    1
                ],
                "metallicFactor" : 0,
                "roughnessFactor" : 0.5
            }
        },
        {
            "doubleSided" : true,
            "name" : "stovetop",
            "pbrMetallicRoughness" : {
                "baseColorFactor" : [
                    0.40625274181365967,
                    0.2792718708515167,
                    0.8000000715255737,
                    1
                ],
                "metallicFactor" : 0,
                "roughnessFactor" : 0.5
            }
        },
        {
            "doubleSided" : true,
            "name" : "burner2",
            "pbrMetallicRoughness" : {
                "baseColorFactor" : [
                    0.09608785808086395,
                    0.07103721052408218,
                    0.8000000715255737,
                    1
                ],
                "metallicFactor" : 0,
                "roughnessFactor" : 0.5
            }
        },
        {
            "doubleSided" : true,
            "name" : "pilot",
            "pbrMetallicRoughness" : {
                "baseColorFactor" : [
                    0.29153722524642944,
                    0.8076200485229492,
                    1,
                    1
                ],
                "metallicFactor" : 0,
                "roughnessFactor" : 0.5
            }
        },
        {
            "doubleSided" : true,
            "name" : "pilotarea",
            "pbrMetallicRoughness" : {
                "baseColorFactor" : [
                    0.8000000715255737,
                    0.0934877023100853,
                    0.10484904795885086,
                    1
                ],
                "metallicFactor" : 0,
                "roughnessFactor" : 0.5
            }
        },
        {
            "doubleSided" : true,
            "name" : "temp",
            "pbrMetallicRoughness" : {
                "baseColorFactor" : [
                    0.04571869224309921,
                    0.07339030504226685,
                    0.8000000715255737,
                    1
                ],
                "metallicFactor" : 0,
                "roughnessFactor" : 0.5
            }
        }
    ],
    "meshes" : [
        {
            "name" : "Cylinder.019",
            "primitives" : [
                {
                    "attributes" : {
                        "POSITION" : 0,
                        "NORMAL" : 1,
                        "TEXCOORD_0" : 2
                    },
                    "indices" : 3,
                    "material" : 0
                },
                {
                    "attributes" : {
                        "POSITION" : 4,
                        "NORMAL" : 5,
                        "TEXCOORD_0" : 6
                    },
                    "indices" : 7,
                    "material" : 1
                },
                {
                    "attributes" : {
                        "POSITION" : 8,
                        "NORMAL" : 9,
                        "TEXCOORD_0" : 10
                    },
                    "indices" : 11,
                    "material" : 2
                },
                {
                    "attributes" : {
                        "POSITION" : 12,
                        "NORMAL" : 13,
                        "TEXCOORD_0" : 14
                    },
                    "indices" : 15,
                    "material" : 3
                },
                {
                    "attributes" : {
                        "POSITION" : 16,
                        "NORMAL" : 17,
                        "TEXCOORD_0" : 18
                    },
                    "indices" : 19,
                    "material" : 4
                },
                {
                    "attributes" : {
                        "POSITION" : 20,
                        "NORMAL" : 21,
                        "TEXCOORD_0" : 22
                    },
                    "indices" : 23,
                    "material" : 5
                },
                {
                    "attributes" : {
                        "POSITION" : 24,
                        "NORMAL" : 25,
                        "TEXCOORD_0" : 26
                    },
                    "indices" : 27,
                    "material" : 6
                },
                {
                    "attributes" : {
                        "POSITION" : 28,
                        "NORMAL" : 29,
                        "TEXCOORD_0" : 30
                    },
                    "indices" : 31,
                    "material" : 7
                },
                {
                    "attributes" : {
                        "POSITION" : 32,
                        "NORMAL" : 33,
                        "TEXCOORD_0" : 34
                    },
                    "indices" : 35,
                    "material" : 8
                }
            ]
        }
    ],
    "accessors" : [
        {
            "bufferView" : 0,
            "componentType" : 5126,
            "count" : 334,
            "max" : [
                -3.1694540977478027,
                3.412778615951538,
                3.7708940505981445
            ],
            "min" : [
                -5.69168758392334,
                0.30242323875427246,
                1.3933428525924683
            ],
            "type" : "VEC3"
        },
        {
            "bufferView" : 1,
            "componentType" : 5126,
            "count" : 334,
            "type" : "VEC3"
        },
        {
            "bufferView" : 2,
            "componentType" : 5126,
            "count" : 334,
            "type" : "VEC2"
        },
        {
            "bufferView" : 3,
            "componentType" : 5123,
            "count" : 516,
            "type" : "SCALAR"
        },
        {
            "bufferView" : 4,
            "componentType" : 5126,
            "count" : 3648,
            "max" : [
                -3.6761550903320312,
                2.963700771331787,
                3.400416135787964
            ],
            "min" : [
                -5.2593278884887695,
                2.9277687072753906,
                1.7661793231964111
            ],
            "type" : "VEC3"
        },
        {
            "bufferView" : 5,
            "componentType" : 5126,
            "count" : 3648,
            "type" : "VEC3"
        },
        {
            "bufferView" : 6,
            "componentType" : 5126,
            "count" : 3648,
            "type" : "VEC2"
        },
        {
            "bufferView" : 7,
            "componentType" : 5123,
            "count" : 11520,
            "type" : "SCALAR"
        },
        {
            "bufferView" : 8,
            "componentType" : 5126,
            "count" : 38,
            "max" : [
                -3.189140558242798,
                2.268578290939331,
                3.1771645545959473
            ],
            "min" : [
                -3.2942099571228027,
                2.163508653640747,
                1.9870686531066895
            ],
            "type" : "VEC3"
        },
        {
            "bufferView" : 9,
            "componentType" : 5126,
            "count" : 38,
            "type" : "VEC3"
        },
        {
            "bufferView" : 10,
            "componentType" : 5126,
            "count" : 38,
            "type" : "VEC2"
        },
        {
            "bufferView" : 11,
            "componentType" : 5123,
            "count" : 96,
            "type" : "SCALAR"
        },
        {
            "bufferView" : 12,
            "componentType" : 5126,
            "count" : 1080,
            "max" : [
                -3.134082794189453,
                2.856687307357788,
                3.480714797973633
            ],
            "min" : [
                -3.2833991050720215,
                2.58571195602417,
                1.6835191249847412
            ],
            "type" : "VEC3"
        },
        {
            "bufferView" : 13,
            "componentType" : 5126,
            "count" : 1080,
            "type" : "VEC3"
        },
        {
            "bufferView" : 14,
            "componentType" : 5126,
            "count" : 1080,
            "type" : "VEC2"
        },
        {
            "bufferView" : 15,
            "componentType" : 5123,
            "count" : 2940,
            "type" : "SCALAR"
        },
        {
            "bufferView" : 16,
            "componentType" : 5126,
            "count" : 299,
            "max" : [
                -3.4248085021972656,
                2.9599874019622803,
                3.689221143722534
            ],
            "min" : [
                -5.572038650512695,
                2.9599874019622803,
                1.4750114679336548
            ],
            "type" : "VEC3"
        },
        {
            "bufferView" : 17,
            "componentType" : 5126,
            "count" : 299,
            "type" : "VEC3"
        },
        {
            "bufferView" : 18,
            "componentType" : 5126,
            "count" : 299,
            "type" : "VEC2"
        },
        {
            "bufferView" : 19,
            "componentType" : 5123,
            "count" : 426,
            "type" : "SCALAR"
        },
        {
            "bufferView" : 20,
            "componentType" : 5126,
            "count" : 1028,
            "max" : [
                -3.66546630859375,
                2.950408697128296,
                3.3421289920806885
            ],
            "min" : [
                -5.356368064880371,
                2.8869006633758545,
                1.6840531826019287
            ],
            "type" : "VEC3"
        },
        {
            "bufferView" : 21,
            "componentType" : 5126,
            "count" : 1028,
            "type" : "VEC3"
        },
        {
            "bufferView" : 22,
            "componentType" : 5126,
            "count" : 1028,
            "type" : "VEC2"
        },
        {
            "bufferView" : 23,
            "componentType" : 5123,
            "count" : 2640,
            "type" : "SCALAR"
        },
        {
            "bufferView" : 24,
            "componentType" : 5126,
            "count" : 1216,
            "max" : [
                -3.92930269241333,
                2.8719983100891113,
                3.1472644805908203
            ],
            "min" : [
                -5.018285274505615,
                2.7121071815490723,
                2.016968011856079
            ],
            "type" : "VEC3"
        },
        {
            "bufferView" : 25,
            "componentType" : 5126,
            "count" : 1216,
            "type" : "VEC3"
        },
        {
            "bufferView" : 26,
            "componentType" : 5126,
            "count" : 1216,
            "type" : "VEC2"
        },
        {
            "bufferView" : 27,
            "componentType" : 5123,
            "count" : 3792,
            "type" : "SCALAR"
        },
        {
            "bufferView" : 28,
            "componentType" : 5126,
            "count" : 691,
            "max" : [
                -3.595651626586914,
                2.9599874019622803,
                3.4809188842773438
            ],
            "min" : [
                -5.308605670928955,
                2.7973432540893555,
                1.6833140850067139
            ],
            "type" : "VEC3"
        },
        {
            "bufferView" : 29,
            "componentType" : 5126,
            "count" : 691,
            "type" : "VEC3"
        },
        {
            "bufferView" : 30,
            "componentType" : 5126,
            "count" : 691,
            "type" : "VEC2"
        },
        {
            "bufferView" : 31,
            "componentType" : 5123,
            "count" : 1908,
            "type" : "SCALAR"
        },
        {
            "bufferView" : 32,
            "componentType" : 5126,
            "count" : 12,
            "max" : [
                -5.548358917236328,
                3.379997730255127,
                3.726972818374634
            ],
            "min" : [
                -5.567905426025391,
                3.0969533920288086,
                1.437264084815979
            ],
            "type" : "VEC3"
        },
        {
            "bufferView" : 33,
            "componentType" : 5126,
            "count" : 12,
            "type" : "VEC3"
        },
        {
            "bufferView" : 34,
            "componentType" : 5126,
            "count" : 12,
            "type" : "VEC2"
        },
        {
            "bufferView" : 35,
            "componentType" : 5123,
            "count" : 18,
            "type" : "SCALAR"
        }
    ],
    "bufferViews" : [
        {
            "buffer" : 0,
            "byteLength" : 4008,
            "byteOffset" : 0
        },
        {
            "buffer" : 0,
            "byteLength" : 4008,
            "byteOffset" : 4008
        },
        {
            "buffer" : 0,
            "byteLength" : 2672,
            "byteOffset" : 8016
        },
        {
            "buffer" : 0,
            "byteLength" : 1032,
            "byteOffset" : 10688
        },
        {
            "buffer" : 0,
            "byteLength" : 43776,
            "byteOffset" : 11720
        },
        {
            "buffer" : 0,
            "byteLength" : 43776,
            "byteOffset" : 55496
        },
        {
            "buffer" : 0,
            "byteLength" : 29184,
            "byteOffset" : 99272
        },
        {
            "buffer" : 0,
            "byteLength" : 23040,
            "byteOffset" : 128456
        },
        {
            "buffer" : 0,
            "byteLength" : 456,
            "byteOffset" : 151496
        },
        {
            "buffer" : 0,
            "byteLength" : 456,
            "byteOffset" : 151952
        },
        {
            "buffer" : 0,
            "byteLength" : 304,
            "byteOffset" : 152408
        },
        {
            "buffer" : 0,
            "byteLength" : 192,
            "byteOffset" : 152712
        },
        {
            "buffer" : 0,
            "byteLength" : 12960,
            "byteOffset" : 152904
        },
        {
            "buffer" : 0,
            "byteLength" : 12960,
            "byteOffset" : 165864
        },
        {
            "buffer" : 0,
            "byteLength" : 8640,
            "byteOffset" : 178824
        },
        {
            "buffer" : 0,
            "byteLength" : 5880,
            "byteOffset" : 187464
        },
        {
            "buffer" : 0,
            "byteLength" : 3588,
            "byteOffset" : 193344
        },
        {
            "buffer" : 0,
            "byteLength" : 3588,
            "byteOffset" : 196932
        },
        {
            "buffer" : 0,
            "byteLength" : 2392,
            "byteOffset" : 200520
        },
        {
            "buffer" : 0,
            "byteLength" : 852,
            "byteOffset" : 202912
        },
        {
            "buffer" : 0,
            "byteLength" : 12336,
            "byteOffset" : 203764
        },
        {
            "buffer" : 0,
            "byteLength" : 12336,
            "byteOffset" : 216100
        },
        {
            "buffer" : 0,
            "byteLength" : 8224,
            "byteOffset" : 228436
        },
        {
            "buffer" : 0,
            "byteLength" : 5280,
            "byteOffset" : 236660
        },
        {
            "buffer" : 0,
            "byteLength" : 14592,
            "byteOffset" : 241940
        },
        {
            "buffer" : 0,
            "byteLength" : 14592,
            "byteOffset" : 256532
        },
        {
            "buffer" : 0,
            "byteLength" : 9728,
            "byteOffset" : 271124
        },
        {
            "buffer" : 0,
            "byteLength" : 7584,
            "byteOffset" : 280852
        },
        {
            "buffer" : 0,
            "byteLength" : 8292,
            "byteOffset" : 288436
        },
        {
            "buffer" : 0,
            "byteLength" : 8292,
            "byteOffset" : 296728
        },
        {
            "buffer" : 0,
            "byteLength" : 5528,
            "byteOffset" : 305020
        },
        {
            "buffer" : 0,
            "byteLength" : 3816,
            "byteOffset" : 310548
        },
        {
            "buffer" : 0,
            "byteLength" : 144,
            "byteOffset" : 314364
        },
        {
            "buffer" : 0,
            "byteLength" : 144,
            "byteOffset" : 314508
        },
        {
            "buffer" : 0,
            "byteLength" : 96,
            "byteOffset" : 314652
        },
        {
            "buffer" : 0,
            "byteLength" : 36,
            "byteOffset" : 314748
        }
    ],
    "buffers" : [
        {
            "byteLength" : 314784,
            "uri" : "data:application/octet-stream;base64,"
        }
    ]
}
